<?xml version="1.0" encoding="utf-8"?>
<!-- Generator: Adobe Illustrator 16.0.0, SVG Export Plug-In . SVG Version: 6.00 Build 0)  -->
<!DOCTYPE svg PUBLIC "-//W3C//DTD SVG 1.1//EN" "http://www.w3.org/Graphics/SVG/1.1/DTD/svg11.dtd">
<svg version="1.1" id="Layer_1" xmlns="http://www.w3.org/2000/svg" xmlns:xlink="http://www.w3.org/1999/xlink" x="0px" y="0px"
	 width="200px" height="2000px" viewBox="0 0 200 2000" enable-background="new 0 0 200 2000" xml:space="preserve">

    <svg x="0px" y="0px" width="18.588px" height="18.588px" viewBox="0 0 18.588 18.588" enable-background="new 0 0 18.588 18.588" xml:space="preserve">
        <g>
            <g>
                <g>
                    <path fill="#CFCFCF" d="M0.75,18.588c-0.191,0-0.384-0.073-0.53-0.221c-0.293-0.292-0.293-0.768,0-1.06L17.159,0.37
                        c0.293-0.294,0.768-0.294,1.061,0c0.293,0.291,0.293,0.768,0,1.06L1.28,18.367C1.134,18.515,0.941,18.588,0.75,18.588z"/>
                </g>
                <g>
                    <path fill="#CFCFCF" d="M17.838,18.44c-0.191,0-0.384-0.074-0.53-0.221L0.369,1.281c-0.293-0.294-0.293-0.768,0-1.062
                        c0.293-0.292,0.768-0.292,1.061,0l16.938,16.939c0.293,0.292,0.293,0.769,0,1.061C18.222,18.366,18.029,18.44,17.838,18.44z"/>
                </g>
            </g>
        </g>
    </svg>

    <svg x="0px" y="20px" width="20px" height="20px" viewBox="0 0 20 20" enable-background="new 0 0 20 20" xml:space="preserve">
        <g>
            <g>
                <path fill="#15C39A" d="M20,10.002C20,15.523,15.523,20,10.002,20C4.479,20,0,15.523,0,10.002C0,4.477,4.479,0,10.002,0
                    C15.523,0,20,4.477,20,10.002z"/>
                <path fill="#FFFFFF" d="M11.051,10.021l3-3.002c0.141-0.138,0.219-0.325,0.219-0.522c0-0.199-0.078-0.384-0.219-0.523
                    c-0.141-0.143-0.328-0.22-0.523-0.22c-0.199,0-0.385,0.078-0.525,0.22l-3,3.002l-3-3.002c-0.143-0.143-0.328-0.22-0.527-0.22
                    c-0.197,0-0.385,0.078-0.527,0.22C5.805,6.113,5.729,6.298,5.729,6.497c0,0.198,0.08,0.384,0.219,0.522l3.006,3.002l-3.006,3.007
                    c-0.139,0.141-0.219,0.325-0.219,0.524c0,0.196,0.08,0.385,0.219,0.524c0.143,0.139,0.33,0.217,0.527,0.217
                    c0.199,0,0.385-0.078,0.521-0.217l3.006-3.003l3,3.003c0.141,0.139,0.326,0.217,0.525,0.217c0.195,0,0.383-0.078,0.523-0.217
                    c0.141-0.14,0.219-0.329,0.219-0.524c0-0.199-0.078-0.383-0.219-0.524L11.051,10.021z"/>
            </g>
        </g>
    </svg>

    <svg x="0px" y="45px" width="10px" height="10.001px" viewBox="0 0 10 10.001" enable-background="new 0 0 10 10.001" xml:space="preserve">
        <path fill="#15C39A" d="M8.531,1.47C7.625,0.563,6.381,0,4.998,0C2.234,0,0,2.237,0,5.002c0,2.761,2.234,4.999,4.998,4.999
        c2.332,0,4.277-1.592,4.836-3.749H8.531c-0.512,1.454-1.9,2.5-3.533,2.5c-2.07,0-3.754-1.683-3.754-3.75
        c0-2.07,1.684-3.752,3.754-3.752c1.039,0,1.963,0.43,2.641,1.112L5.623,4.376H10V0L8.531,1.47z"/>
    </svg>

    <svg x="0px" y="60px" width="20.85px" height="20.85px" viewBox="0 0 20.85 20.85" enable-background="new 0 0 20.85 20.85" xml:space="preserve">
        <g>
            <path fill="#15C39A" d="M10.426,20.85C4.676,20.85,0,16.175,0,10.425S4.676,0,10.426,0C16.174,0,20.85,4.675,20.85,10.425
                S16.174,20.85,10.426,20.85z"/>
            <path fill="#15C39A" d="M10.426,0.834c-5.289,0-9.592,4.301-9.592,9.591c0,5.287,4.303,9.591,9.592,9.591
                c5.287,0,9.59-4.304,9.59-9.591C20.016,5.135,15.713,0.834,10.426,0.834z"/>
            <g>
                <g>
                    <path fill-rule="evenodd" clip-rule="evenodd" fill="#FFFFFF" d="M5.012,8.547c0.404-0.346,0.898-0.235,1.34-0.188
                        C6.994,8.42,7.416,8.194,7.805,7.704c0.523-0.668,1.111-1.286,1.68-1.916c0.17-0.188,0.348-0.424,0.656-0.301
                        c0.305,0.121,0.283,0.404,0.283,0.663c0.002,2.825,0.002,5.652,0.002,8.484c0,0.281,0.016,0.589-0.289,0.72
                        c-0.328,0.146-0.51-0.138-0.688-0.336c-0.652-0.718-1.301-1.441-1.926-2.185c-0.211-0.253-0.43-0.358-0.754-0.333
                        c-0.363,0.024-0.729-0.013-1.092,0.009c-0.258,0.016-0.471-0.063-0.666-0.212C5.012,11.044,5.012,9.797,5.012,8.547z"/>
                </g>
                <g>
                    <path fill-rule="evenodd" clip-rule="evenodd" fill="#FFFFFF" d="M15.838,11.15c-0.254,0.807-0.527,1.593-1.105,2.245
                        c-0.373,0.416-0.801,0.76-1.283,1.039c-0.256,0.151-0.521,0.267-0.711-0.072c-0.182-0.321,0.01-0.488,0.289-0.646
                        c1.295-0.741,1.984-1.867,1.965-3.358c-0.016-1.34-0.635-2.383-1.764-3.114C12.945,7.06,12.506,6.9,12.768,6.476
                        c0.262-0.421,0.617-0.108,0.896,0.066c1.137,0.724,1.855,1.741,2.092,3.082c0.01,0.06,0.055,0.117,0.082,0.173
                        C15.838,10.25,15.838,10.699,15.838,11.15z"/>
                </g>
                <g>
                    <path fill-rule="evenodd" clip-rule="evenodd" fill="#FFFFFF" d="M13.756,10.553c-0.045,0.919-0.523,1.715-1.393,2.286
                        c-0.227,0.153-0.449,0.207-0.627-0.056c-0.164-0.247-0.107-0.46,0.146-0.613c1.357-0.82,1.396-2.623,0.031-3.471
                        c-0.238-0.15-0.342-0.388-0.18-0.619c0.18-0.264,0.441-0.203,0.688-0.051C13.197,8.502,13.756,9.502,13.756,10.553z"/>
                </g>
            </g>
        </g>
    </svg>

    <svg x="0px" y="85px" width="23.076px" height="23.078px" viewBox="0 0 23.076 23.078" enable-background="new 0 0 23.076 23.078" xml:space="preserve">
        <g>
            <circle fill="#FFFFFF" cx="11.538" cy="11.54" r="11.538"/>
            <g>
                <path fill="#FFFFFF" d="M7.473,9.737C7.52,9.79,7.568,9.846,7.621,9.898L8.85,11.13l0.004-0.006L7.473,9.737z"/>
                <path fill="#FFFFFF" d="M15.027,11.15l0.006,0.005l1.244-1.233c0.059-0.06,0.113-0.121,0.164-0.185l-1.404,1.404L15.027,11.15z"/>
                <path fill="#FFFFFF" d="M8.855,11.136L8.85,11.13l-1.242,1.231c-0.059,0.06-0.113,0.123-0.164,0.188l1.402-1.404L8.855,11.136z"/>
                <path fill="#E43439" d="M8.047,11.916l-0.004,0.005l0.006,0.005l-0.01,0.011l-1.402,1.404C5.951,14.196,6,15.445,6.791,16.242
                    c0.85,0.855,2.232,0.862,3.088,0.012l1.238-1.233l0.006,0.008l0.004-0.005l1.242,1.242c0.854,0.853,2.236,0.853,3.088,0
                    c0.801-0.799,0.848-2.066,0.146-2.925l-1.379-1.387l2.057-2.056c0.852-0.853,0.852-2.236,0-3.087
                    c-0.854-0.854-2.236-0.854-3.088,0l-1.816,1.815L11.154,8.85l-0.006-0.008l-0.004,0.004L9.902,7.604
                    c-0.854-0.854-2.236-0.854-3.088,0c-0.799,0.799-0.85,2.068-0.146,2.924L8.047,11.916z"/>
                <polygon fill="#F7D5D8" points="11.148,8.842 14.209,11.945 11.668,8.338         "/>
            </g>
        </g>
    </svg>

    <svg x="0px" y="110px" width="22.895px" height="22.892px" viewBox="0 0 22.895 22.892" enable-background="new 0 0 22.895 22.892" xml:space="preserve">
        <g>
            <circle fill="#FFFFFF" cx="11.447" cy="11.445" r="11.447"/>
            <g>
                <path fill="#7AC30C" d="M17.096,7.173c-0.842-0.843-2.209-0.843-3.053,0l-3.963,3.964L8.852,9.908
                    c-0.844-0.842-2.211-0.842-3.055,0c-0.844,0.845-0.844,2.212,0,3.054l1.229,1.229l1.527,1.528
                    c0.025,0.022,0.051,0.047,0.076,0.071c0.016,0.014,0.031,0.025,0.047,0.037c0.025,0.024,0.051,0.046,0.078,0.064
                    c0.029,0.024,0.059,0.045,0.09,0.068C8.871,15.979,8.898,16,8.926,16.017c0.031,0.017,0.064,0.037,0.096,0.059
                    c0.029,0.012,0.057,0.027,0.086,0.042c0.033,0.016,0.066,0.032,0.1,0.049c0.029,0.009,0.059,0.024,0.09,0.036
                    c0.033,0.01,0.068,0.023,0.104,0.036c0.029,0.008,0.061,0.019,0.092,0.028c0.033,0.011,0.07,0.018,0.105,0.024
                    c0.031,0.008,0.063,0.017,0.092,0.021c0.037,0.007,0.074,0.01,0.109,0.016c0.031,0.002,0.063,0.009,0.092,0.013
                    c0.039,0,0.076,0.003,0.113,0.003c0.031,0.002,0.061,0.006,0.09,0.006c0.039,0,0.078-0.006,0.117-0.009
                    c0.027,0,0.057,0,0.086-0.004c0.043-0.004,0.084-0.013,0.125-0.018c0.025-0.004,0.051-0.007,0.076-0.012
                    c0.053-0.011,0.104-0.023,0.152-0.038c0.016-0.003,0.031-0.008,0.047-0.013c0.064-0.016,0.129-0.04,0.193-0.065
                    c0.016-0.006,0.031-0.017,0.047-0.021c0.047-0.021,0.096-0.041,0.141-0.064c0.021-0.012,0.041-0.022,0.061-0.036
                    c0.041-0.024,0.082-0.045,0.121-0.069c0.021-0.015,0.041-0.033,0.063-0.046c0.037-0.026,0.074-0.054,0.107-0.079
                    c0.021-0.017,0.043-0.038,0.064-0.056c0.027-0.022,0.055-0.045,0.08-0.07c0.012-0.011,0.021-0.021,0.031-0.029
                    c0.018-0.017,0.031-0.034,0.047-0.051h0.004l1.477-1.478l3.963-3.963C17.939,9.383,17.939,8.019,17.096,7.173z"/>
                <polygon opacity="0.5" fill="#FFFFFF" points="10.08,11.137 13.133,14.191 10.543,10.673      "/>
            </g>
        </g>
    </svg>

    <svg x="0px" y="135px" width="53.926px" height="53.924px" viewBox="0 0 53.926 53.924" enable-background="new 0 0 53.926 53.924" xml:space="preserve">
        <g>
            <circle fill="#E43439" cx="26.963" cy="26.963" r="26.963"/>
            <path opacity="0.1" fill="#231F20" d="M8.885,26.963c0-13.379,9.744-24.478,22.52-26.598C29.959,0.125,28.477,0,26.963,0
                C12.07,0,0,12.07,0,26.963c0,14.891,12.07,26.961,26.963,26.961c1.514,0,2.996-0.125,4.443-0.365
                C18.629,51.439,8.885,40.339,8.885,26.963z"/>
            <g>
                <g>
                    <g>
                        <path fill="#FFFFFF" d="M19.928,21.421c0,1.455-1.18,2.633-2.635,2.633l0,0c-1.453,0-2.631-1.178-2.631-2.633v-2.056
                            c0-1.456,1.178-2.633,2.631-2.633l0,0c1.455,0,2.635,1.177,2.635,2.633V21.421z"/>
                    </g>
                    <g>
                        <path fill="#FFFFFF" d="M39.264,21.421c0,1.455-1.18,2.633-2.633,2.633l0,0c-1.453,0-2.633-1.178-2.633-2.633v-2.056
                            c0-1.456,1.18-2.633,2.633-2.633l0,0c1.453,0,2.633,1.177,2.633,2.633V21.421z"/>
                    </g>
                </g>
            </g>
            <g>
                <path fill="#FFFFFF" d="M26.777,34.6c5.77,0,10.105,2.896,10.379,3.084c1.055,0.722,1.324,2.162,0.602,3.216
                    c-0.719,1.055-2.156,1.324-3.211,0.607c-0.326-0.219-7.764-5.089-15.123,0.178c-1.039,0.744-2.486,0.503-3.23-0.537
                    c-0.742-1.04-0.504-2.485,0.537-3.229C20.221,35.421,23.703,34.6,26.777,34.6z"/>
            </g>
        </g>
    </svg>

    <svg x="0px" y="190px" width="53.609px" height="53.606px" viewBox="0 0 53.609 53.606" enable-background="new 0 0 53.609 53.606" xml:space="preserve">
        <g>
            <circle fill="#83CE00" cx="26.805" cy="26.802" r="26.805"/>
            <path opacity="0.1" fill="#231F20" d="M8.834,26.802c0-13.298,9.686-24.333,22.387-26.44C29.783,0.125,28.309,0,26.805,0
                C12,0,0,12,0,26.802c0,14.805,12,26.805,26.805,26.805c1.504,0,2.98-0.126,4.416-0.363C18.52,51.137,8.834,40.102,8.834,26.802z"/>
            <g>
                <g>
                    <g>
                        <path fill="#FFFFFF" d="M19.811,21.295c0,1.446-1.172,2.618-2.617,2.618l0,0c-1.445,0-2.617-1.172-2.617-2.618V19.25
                            c0-1.445,1.172-2.617,2.617-2.617l0,0c1.445,0,2.617,1.172,2.617,2.617V21.295z"/>
                    </g>
                    <g>
                        <path fill="#FFFFFF" d="M39.033,21.295c0,1.446-1.172,2.618-2.617,2.618l0,0c-1.445,0-2.617-1.172-2.617-2.618V19.25
                            c0-1.445,1.172-2.617,2.617-2.617l0,0c1.445,0,2.617,1.172,2.617,2.617V21.295z"/>
                    </g>
                </g>
            </g>
            <g>
                <path fill="#FFFFFF" d="M26.988,41.868c-5.734,0-10.045-2.88-10.316-3.067c-1.049-0.719-1.316-2.15-0.6-3.198
                    c0.717-1.049,2.145-1.315,3.193-0.605c0.324,0.219,7.717,5.061,15.033-0.175c1.033-0.739,2.471-0.501,3.211,0.532
                    c0.74,1.034,0.502,2.473-0.531,3.212C33.508,41.049,30.045,41.868,26.988,41.868z"/>
            </g>
        </g>
    </svg>

    <svg x="0px" y="245px" width="5px" height="5px" viewBox="0 0 5 5" enable-background="new 0 0 5 5" xml:space="preserve">
        <polygon fill="#CFCFCF" points="2.5,0 3.384,1.617 5,2.5 3.384,3.385 2.5,5 1.616,3.385 0,2.5 1.616,1.617 "/>
    </svg>

    <svg x="0px" y="255px" width="110px" height="110px" viewBox="0 0 110 110" enable-background="new 0 0 110 110" xml:space="preserve">
        <g>
            <path fill="#15C39A" d="M55,0C24.672,0,0,24.67,0,55c0,30.325,24.672,55,55,55c30.326,0,55-24.675,55-55C110,24.67,85.326,0,55,0z"/>
            <g>
                <g>
                    <path fill-rule="evenodd" clip-rule="evenodd" fill="#FFFFFF" d="M26.441,45.093c2.131-1.817,4.736-1.233,7.064-0.993     c3.395,0.322,5.619-0.863,7.666-3.453c2.766-3.522,5.869-6.784,8.867-10.107c0.894-1,1.832-2.238,3.465-1.59     c1.597,0.637,1.486,2.127,1.486,3.498C55,47.363,55,62.276,55,77.213c0,1.487,0.084,3.11-1.521,3.805     c-1.729,0.749-2.691-0.742-3.627-1.781c-3.438-3.799-6.865-7.605-10.158-11.537c-1.117-1.324-2.27-1.883-3.979-1.762     c-1.916,0.146-3.85-0.053-5.768,0.062c-1.357,0.071-2.475-0.333-3.506-1.124C26.441,58.276,26.441,51.688,26.441,45.093z"/>
                </g>
                <g>
                    <path fill-rule="evenodd" clip-rule="evenodd" fill="#FFFFFF" d="M83.556,58.832c-1.342,4.245-2.785,8.399-5.836,11.844     c-1.969,2.203-4.219,4.01-6.764,5.479c-1.357,0.801-2.75,1.414-3.756-0.376c-0.953-1.702,0.053-2.579,1.521-3.416     c6.842-3.894,10.477-9.845,10.373-17.717c-0.086-7.065-3.352-12.569-9.307-16.423c-1.496-0.976-3.816-1.807-2.434-4.06     c1.377-2.22,3.258-0.58,4.736,0.35c5.99,3.825,9.789,9.179,11.033,16.254c0.053,0.32,0.283,0.625,0.432,0.92     C83.556,54.069,83.556,56.447,83.556,58.832z"/>
                </g>
                <g>
                    <path fill-rule="evenodd" clip-rule="evenodd" fill="#FFFFFF" d="M72.572,55.676c-0.24,4.849-2.768,9.055-7.348,12.063     c-1.201,0.808-2.371,1.091-3.309-0.301c-0.867-1.299-0.566-2.424,0.773-3.232c7.158-4.325,7.367-13.836,0.164-18.312     c-1.254-0.788-1.797-2.034-0.945-3.262c0.945-1.397,2.32-1.061,3.625-0.262C69.625,44.858,72.572,50.137,72.572,55.676z"/>
                </g>
            </g>
        </g>
    </svg>

    <svg x="0px" y="370px" width="25px" height="25px" viewBox="0 0 25 25" enable-background="new 0 0 25 25" xml:space="preserve">
        <g>
            <g>
                <circle fill="#15C39A" cx="12.5" cy="12.5" r="12.5"/>
                <path fill="#FFFFFF" d="M13.814,12.526l3.75-3.752c0.174-0.175,0.275-0.406,0.275-0.655c0-0.248-0.102-0.479-0.275-0.655    c-0.176-0.176-0.41-0.272-0.654-0.272c-0.25,0-0.482,0.097-0.656,0.272l-3.75,3.755l-3.75-3.755    c-0.18-0.176-0.41-0.272-0.658-0.272S7.612,7.289,7.436,7.465C7.255,7.641,7.162,7.872,7.162,8.12c0,0.249,0.101,0.48,0.273,0.655    l3.756,3.752l-3.756,3.759c-0.173,0.175-0.273,0.407-0.273,0.656c0,0.244,0.101,0.479,0.273,0.656    c0.177,0.174,0.411,0.271,0.659,0.271s0.479-0.096,0.65-0.271l3.758-3.754l3.75,3.754c0.174,0.174,0.406,0.271,0.656,0.271    c0.244,0,0.479-0.096,0.654-0.271c0.174-0.177,0.275-0.412,0.275-0.656c0-0.249-0.102-0.48-0.275-0.656L13.814,12.526z"/>
            </g>
        </g>
    </svg>

    <svg x="0px" y="400px" width="30px" height="30px" viewBox="0 0 30 30" enable-background="new 0 0 30 30" xml:space="preserve">
        <g>
            <path fill="#15C39A" d="M15,0C6.729,0,0,6.729,0,15c0,8.271,6.729,15,15,15c8.271,0,15-6.729,15-15C30,6.729,23.271,0,15,0z"/>
            <g>
                <g>
                    <path fill-rule="evenodd" clip-rule="evenodd" fill="#FFFFFF" d="M7.211,12.299c0.581-0.496,1.292-0.337,1.927-0.271     c0.926,0.088,1.533-0.235,2.091-0.941c0.754-0.961,1.601-1.851,2.418-2.757c0.244-0.272,0.5-0.61,0.945-0.434     c0.436,0.174,0.405,0.58,0.405,0.954C15,12.917,15,16.984,15,21.059c0,0.405,0.022,0.848-0.415,1.037     c-0.472,0.204-0.734-0.202-0.989-0.485c-0.938-1.036-1.872-2.074-2.771-3.146c-0.305-0.361-0.619-0.514-1.085-0.48     C9.218,18.023,8.69,17.969,8.167,18c-0.37,0.02-0.675-0.091-0.956-0.307C7.211,15.894,7.211,14.097,7.211,12.299z"/>
                </g>
                <g>
                    <path fill-rule="evenodd" clip-rule="evenodd" fill="#FFFFFF" d="M22.788,16.045c-0.366,1.158-0.76,2.291-1.592,3.23     c-0.537,0.601-1.15,1.094-1.845,1.494c-0.37,0.219-0.75,0.386-1.024-0.103c-0.26-0.464,0.015-0.703,0.415-0.932     c1.866-1.062,2.857-2.685,2.829-4.832c-0.023-1.927-0.914-3.428-2.538-4.479c-0.408-0.267-1.041-0.493-0.664-1.107     c0.375-0.605,0.888-0.158,1.292,0.096c1.634,1.043,2.67,2.503,3.009,4.433c0.014,0.088,0.077,0.171,0.118,0.251     C22.788,14.746,22.788,15.395,22.788,16.045z"/>
                </g>
                <g>
                    <path fill-rule="evenodd" clip-rule="evenodd" fill="#FFFFFF" d="M19.792,15.185c-0.065,1.322-0.754,2.47-2.004,3.29     c-0.327,0.22-0.646,0.297-0.902-0.082c-0.236-0.354-0.154-0.661,0.211-0.882c1.953-1.18,2.01-3.773,0.045-4.994     c-0.342-0.215-0.49-0.555-0.258-0.89c0.258-0.381,0.633-0.289,0.988-0.071C18.988,12.234,19.792,13.674,19.792,15.185z"/>
                </g>
            </g>
        </g>
    </svg>

    <svg x="0px" y="435px" width="11.149px" height="13.31px" viewBox="0 0 11.149 13.31" enable-background="new 0 0 11.149 13.31" xml:space="preserve">
        <g>
            <g>
                <polygon fill="#15C39A" points="11.088,0.127 1.419,0.127 1.419,0.127 1.419,5.946 1.419,5.946 11.088,5.946 11.088,5.946     9.392,3.028   "/>
                <rect x="0.062" y="0.077" fill="#15C39A" width="0.679" height="13.146"/>
            </g>
        </g>
    </svg>

    <svg x="0px" y="450px" width="25px" height="25px" viewBox="0 0 25 25" enable-background="new 0 0 25 25" xml:space="preserve">
        <g>
            <path fill="#15C39A" d="M12.5,25C5.606,25,0,19.394,0,12.5C0,5.607,5.606,0,12.5,0C19.392,0,25,5.607,25,12.5   C25,19.394,19.392,25,12.5,25z"/>
            <path fill="#15C39A" d="M12.5,1.002C6.159,1.002,1,6.158,1,12.5c0,6.341,5.159,11.501,11.5,11.501c6.341,0,11.5-5.16,11.5-11.501   C24,6.158,18.841,1.002,12.5,1.002z"/>
            <g>
                <g>
                    <path fill-rule="evenodd" clip-rule="evenodd" fill="#FFFFFF" d="M6.009,10.249c0.485-0.415,1.077-0.282,1.606-0.227     c0.771,0.074,1.276-0.196,1.741-0.784c0.629-0.801,1.334-1.542,2.016-2.297c0.204-0.227,0.416-0.507,0.787-0.362     c0.364,0.146,0.338,0.485,0.338,0.796C12.5,10.764,12.5,14.153,12.5,17.549c0,0.338,0.02,0.707-0.346,0.863     c-0.394,0.172-0.612-0.168-0.824-0.404c-0.782-0.862-1.561-1.728-2.31-2.62c-0.255-0.302-0.515-0.43-0.903-0.4     c-0.436,0.031-0.875-0.016-1.311,0.011c-0.31,0.018-0.563-0.075-0.798-0.252C6.009,13.244,6.009,11.749,6.009,10.249z"/>
                </g>
                <g>
                    <path fill-rule="evenodd" clip-rule="evenodd" fill="#FFFFFF" d="M18.99,13.37c-0.305,0.967-0.635,1.909-1.326,2.691     c-0.447,0.5-0.959,0.912-1.537,1.247c-0.309,0.182-0.625,0.32-0.854-0.088c-0.217-0.384,0.012-0.583,0.346-0.774     c1.555-0.885,2.381-2.237,2.357-4.026c-0.021-1.605-0.762-2.854-2.115-3.733c-0.34-0.221-0.867-0.411-0.553-0.922     c0.313-0.504,0.74-0.13,1.076,0.082c1.363,0.867,2.225,2.084,2.508,3.693c0.012,0.075,0.063,0.142,0.098,0.209     C18.99,12.29,18.99,12.831,18.99,13.37z"/>
                </g>
                <g>
                    <path fill-rule="evenodd" clip-rule="evenodd" fill="#FFFFFF" d="M16.494,12.653c-0.055,1.104-0.629,2.059-1.67,2.743     c-0.271,0.183-0.539,0.247-0.752-0.069c-0.197-0.294-0.129-0.551,0.176-0.732c1.627-0.984,1.674-3.146,0.037-4.164     C14,10.252,13.876,9.967,14.07,9.69c0.215-0.319,0.527-0.244,0.824-0.061C15.824,10.196,16.494,11.395,16.494,12.653z"/>
                </g>
            </g>
        </g>
    </svg>

    <svg x="0px" y="480px" width="20px" height="20px" viewBox="0 0 20 20" enable-background="new 0 0 20 20" xml:space="preserve">
        <g>
            <g>
                <g>
                    <g>
                        <path fill="#15C39A" d="M9.746,19.492C4.373,19.492,0,15.12,0,9.746S4.373,0,9.746,0c5.375,0,9.746,4.372,9.746,9.746      S15.121,19.492,9.746,19.492z M9.746,1C4.924,1,1,4.924,1,9.746c0,4.823,3.924,8.746,8.746,8.746s8.746-3.923,8.746-8.746      C18.492,4.924,14.568,1,9.746,1z"/>
                    </g>
                </g>
                <g>
                    <g>
                        <path fill="#15C39A" d="M12.328,12.88c0-0.181-0.141-0.322-0.322-0.322h-0.969V7.394c0-0.182-0.141-0.322-0.322-0.322H7.486      c-0.182,0-0.322,0.141-0.322,0.322v1.613c0,0.182,0.141,0.323,0.322,0.323h0.969v3.228H7.486c-0.182,0-0.322,0.142-0.322,0.322      v1.614c0,0.182,0.141,0.322,0.322,0.322h4.52c0.182,0,0.322-0.141,0.322-0.322V12.88z"/>
                    </g>
                    <g>
                        <path fill="#15C39A" d="M11.037,3.843c0-0.181-0.141-0.322-0.322-0.322H8.777c-0.182,0-0.322,0.142-0.322,0.322v1.614      c0,0.182,0.141,0.322,0.322,0.322h1.938c0.182,0,0.322-0.141,0.322-0.322V3.843z"/>
                    </g>
                </g>
            </g>
        </g>
    </svg>


    <svg x="0px" y="505px" width="23.934px" height="24px" viewBox="0 0 23.934 24" enable-background="new 0 0 23.934 24" xml:space="preserve">
        <g>
            <g>
                <path fill="#414042" d="M0,12.935c0-0.589,0.482-1.069,1.071-1.069h3.305c0.589,0,1.07,0.48,1.07,1.069v10.12    c0,0.589-0.481,1.069-1.07,1.069H1.071C0.482,24.124,0,23.644,0,23.055V12.935z"/>
            </g>
            <g>
                <path fill="#414042" d="M9.244,18.306c0-0.589,0.482-1.071,1.07-1.071h3.305c0.588,0,1.07,0.482,1.07,1.071v4.749    c0,0.589-0.482,1.069-1.07,1.069h-3.305c-0.588,0-1.07-0.48-1.07-1.069V18.306z"/>
            </g>
            <g>
                <path fill="#414042" d="M18.489,1.072c0-0.591,0.48-1.072,1.068-1.072h3.307c0.588,0,1.07,0.481,1.07,1.072v21.982    c0,0.589-0.482,1.069-1.07,1.069h-3.307c-0.588,0-1.068-0.48-1.068-1.069V1.072z"/>
            </g>
        </g>
    </svg>

    <svg x="0px" y="535px" width="33.644px" height="5px" viewBox="0 0 33.644 5" enable-background="new 0 0 33.644 5" xml:space="preserve">
        <g>
            <g transform="translate(-90.000000, -225.000000)">
                <path fill="#414042" d="M92.5,230c1.381,0,2.5-1.12,2.5-2.501c0-1.38-1.119-2.499-2.5-2.499    c-1.38,0-2.5,1.119-2.5,2.499C90,228.88,91.12,230,92.5,230z M106.822,230c1.381,0,2.5-1.12,2.5-2.501    c0-1.38-1.119-2.499-2.5-2.499s-2.5,1.119-2.5,2.499C104.322,228.88,105.441,230,106.822,230z M121.144,230    c1.381,0,2.5-1.12,2.5-2.501c0-1.38-1.119-2.499-2.5-2.499s-2.5,1.119-2.5,2.499C118.644,228.88,119.763,230,121.144,230z"/>
            </g>
        </g>
    </svg>

    <svg x="0px" y="545px" width="24.571px" height="24.572px" viewBox="0 0 24.571 24.572" enable-background="new 0 0 24.571 24.572" xml:space="preserve">
        <g>
            <circle fill="#FFFFFF" cx="11.79" cy="12.877" r="8.925"/>
            <path fill="#FFB722" d="M12.285,0L12.285,0C5.5,0,0,5.5,0,12.286c0,6.786,5.501,12.286,12.285,12.286   c6.785,0,12.286-5.5,12.286-12.286V0H12.285z M13.715,16.275H11.79v-3.397c0-0.176,0.002-0.372,0.008-0.588   c0.006-0.216,0.029-0.744,0.072-1.585h-0.048l-1.563,5.57H8.265L6.68,10.694H6.632c0.074,0.95,0.111,1.688,0.111,2.216v3.365H4.888   v-7.75h2.788l1.617,5.502h0.042l1.586-5.502h2.794V16.275z M19.985,10.206h-2.507v1.219h2.322v1.68h-2.322v1.464h2.507v1.706   h-4.601v-7.75h4.601V10.206z"/>
        </g>
    </svg>

    <svg x="0px" y="575px" width="29.966px" height="24.135px" viewBox="0 0 29.966 24.135" enable-background="new 0 0 29.966 24.135" xml:space="preserve">
        <g>
            <g>
                <g>
                    <polygon fill="#15C39A" points="2.005,17.698 4.525,17.698 4.525,15.694 2.005,15.694 2.005,11.253 4.525,11.253 4.525,9.247      2.005,9.247 2.005,4.808 4.525,4.808 4.525,2.803 2.005,2.803 2.005,0 0,0 0,24.135 29.537,24.135 29.537,22.13 2.005,22.13         "/>
                </g>
                <g>
                    <path fill="#15C39A" d="M7.431,17.751c-0.438,0-0.852-0.264-1.023-0.696c-0.224-0.565,0.053-1.204,0.618-1.427l2.644-1.047     l3.058-5.293c0.298-0.516,0.953-0.7,1.476-0.417l3.162,1.708l3.225-5.894c0.164-0.299,0.457-0.506,0.794-0.559     c0.341-0.052,0.681,0.054,0.927,0.289l2.531,2.397l3.06-5.545c0.292-0.532,0.961-0.726,1.494-0.432     c0.532,0.293,0.726,0.962,0.432,1.494l-3.747,6.79c-0.164,0.298-0.457,0.504-0.794,0.556c-0.338,0.053-0.679-0.054-0.925-0.288     l-2.527-2.394l-3.064,5.602c-0.29,0.531-0.956,0.728-1.488,0.44l-3.185-1.721l-2.715,4.699c-0.124,0.215-0.317,0.381-0.548,0.473     l-3,1.187C7.703,17.726,7.565,17.751,7.431,17.751z"/>
                </g>
            </g>
        </g>
    </svg>

    <svg x="0px" y="605px" width="25px" height="25.492px" viewBox="0 0 25 25.492" enable-background="new 0 0 25 25.492" xml:space="preserve">
        <g>
            <path fill="#414042" d="M24.986,11.654C24.479,4.987,18.96,0,12.481,0c-0.694,0-1.414,0.055-2.135,0.187   C4.108,1.255-0.399,6.959,0.028,13.307c0.213,3.439,1.813,6.427,4.186,8.533c-0.613,1.066-1.094,1.679-2.053,2.56   c-0.428,0.372-0.16,1.093,0.4,1.093c0.053,0,0.133,0,0.186,0c1.627,0,3.787-0.4,5.281-1.308c1.412,0.508,2.906,0.775,4.479,0.775   c0.721,0,1.467-0.054,2.213-0.188C20.959,23.679,25.412,17.973,24.986,11.654z"/>
            <g>
                <circle fill="#FFFFFF" cx="12.534" cy="12.747" r="1.573"/>
                <circle fill="#FFFFFF" cx="7.335" cy="12.747" r="1.573"/>
                <circle fill="#FFFFFF" cx="17.706" cy="12.747" r="1.573"/>
            </g>
        </g>
    </svg>

    <svg x="0px" y="635px" width="1px" height="26.471px" viewBox="0 0 1 26.471" enable-background="new 0 0 1 26.471" xml:space="preserve">
        <g>
            <path fill="#A6A7AA" d="M0.515,0c0,0,0.044,0.414,0.098,1.137c0.039,0.725,0.139,1.758,0.184,3   c0.043,1.241,0.127,2.688,0.158,4.238c0.043,1.551,0.051,3.207,0.061,4.862c-0.01,1.654-0.018,3.309-0.059,4.86   c-0.031,1.551-0.115,2.998-0.16,4.24c-0.043,1.24-0.143,2.273-0.184,2.998c-0.054,0.725-0.098,1.137-0.098,1.137   s-0.044-0.412-0.098-1.137c-0.04-0.725-0.14-1.758-0.185-2.998c-0.043-1.242-0.128-2.689-0.158-4.24   c-0.042-1.551-0.049-3.206-0.06-4.86c0.011-1.655,0.019-3.311,0.061-4.862c0.031-1.55,0.115-2.997,0.159-4.238   c0.045-1.242,0.144-2.275,0.184-3C0.471,0.414,0.515,0,0.515,0z"/>
        </g>
    </svg>

    <svg x="0px" y="665px" width="24.571px" height="24.572px" viewBox="0 0 24.571 24.572" enable-background="new 0 0 24.571 24.572" xml:space="preserve">
        <g>
            <circle fill="#FFFFFF" cx="11.79" cy="12.877" r="8.925"/>
            <path fill="#bbbbbc" d="M12.285,0L12.285,0C5.5,0,0,5.5,0,12.286c0,6.786,5.501,12.286,12.285,12.286   c6.785,0,12.286-5.5,12.286-12.286V0H12.285z M13.715,16.275H11.79v-3.397c0-0.176,0.002-0.372,0.008-0.588   c0.006-0.216,0.029-0.744,0.072-1.585h-0.048l-1.563,5.57H8.265L6.68,10.694H6.632c0.074,0.95,0.111,1.688,0.111,2.216v3.365H4.888   v-7.75h2.788l1.617,5.502h0.042l1.586-5.502h2.794V16.275z M19.985,10.206h-2.507v1.219h2.322v1.68h-2.322v1.464h2.507v1.706   h-4.601v-7.75h4.601V10.206z"/>
        </g>
    </svg>

    <svg x="0px" y="695px" width="61px" height="61px" viewBox="0 0 61 61" enable-background="new 0 0 61 61" xml:space="preserve">
        <path fill="#FFFFFF" d="M30.533,0L30.533,0C13.672,0,0,13.671,0,30.534c0,16.864,13.672,30.534,30.533,30.534  c16.863,0,30.535-13.67,30.535-30.534V0H30.533z M34.086,40.452h-4.781v-8.445c0-0.439,0.006-0.926,0.018-1.463  c0.012-0.535,0.074-1.849,0.18-3.938h-0.119l-3.887,13.847h-4.955L16.604,26.58h-0.121c0.184,2.362,0.277,4.197,0.277,5.507v8.366  h-4.611V21.19h6.93l4.02,13.676h0.105l3.938-13.676h6.945V40.452z M49.672,25.366h-6.232v3.031h5.771v4.177h-5.771v3.637h6.232  v4.242H38.236V21.19h11.436V25.366z"/>
    </svg>

    <svg x="0px" y="760px" width="20px" height="23.846px" viewBox="0 0 20 23.846" enable-background="new 0 0 20 23.846" xml:space="preserve">
        <g>
            <g>
                <polygon fill="#BBBBBC" points="20,0.091 2.463,0.091 2.463,0.091 2.463,10.646 2.463,10.646 20,10.646 20,10.646 16.923,5.354       "/>
                <rect fill="#BBBBBC" width="1.23" height="23.846"/>
            </g>
        </g>
    </svg>

    <svg x="0px" y="790px" width="20px" height="23.846px" viewBox="0 0 20 23.846" enable-background="new 0 0 20 23.846" xml:space="preserve">
        <g>
            <g>
                <polygon fill="#15C39A" points="20,0.091 2.463,0.091 2.463,0.091 2.463,10.646 2.463,10.646 20,10.646 20,10.646 16.923,5.354       "/>
                <rect fill="#15C39A" width="1.23" height="23.846"/>
            </g>
        </g>
    </svg>

    <svg x="0px" y="820px" width="20.001px" height="20px" viewBox="0 0 20.001 20" enable-background="new 0 0 20.001 20" xml:space="preserve">
        <path fill="#BBBBBC" d="M19.749,7.742c-0.025-0.066-0.059-0.127-0.102-0.184c-0.361-0.461-0.92-0.721-1.506-0.698H18.04  c-0.336-0.008-0.643-0.196-0.801-0.491c-0.014,0-0.027-0.01-0.029-0.025c0-0.001,0-0.001,0-0.003  c-0.105-0.184-0.199-0.336-0.307-0.52c-0.012-0.003-0.02-0.013-0.021-0.024c-0.178-0.293-0.188-0.658-0.027-0.959  c0.027-0.019,0.045-0.046,0.051-0.078c0.305-0.519,0.361-1.145,0.152-1.708c-0.02-0.068-0.057-0.132-0.102-0.185  c-0.342-0.321-0.699-0.625-1.072-0.908c-0.051-0.024-0.107-0.049-0.182-0.078c-0.584-0.12-1.191,0.044-1.635,0.442  c-0.031,0.008-0.057,0.026-0.076,0.05c-0.156,0.133-0.355,0.205-0.561,0.2c-0.123-0.003-0.248-0.029-0.359-0.078  c-0.191-0.082-0.387-0.147-0.586-0.201c-0.32-0.114-0.555-0.391-0.613-0.725c-0.006-0.035-0.014-0.069-0.027-0.103  c-0.076-0.597-0.439-1.12-0.973-1.399c-0.055-0.031-0.115-0.047-0.178-0.047c-0.459-0.028-0.92-0.028-1.377,0  c-0.064,0.005-0.125,0.021-0.182,0.05c-0.533,0.292-0.895,0.82-0.973,1.422c-0.02,0.02-0.031,0.049-0.027,0.078  C8.085,1.91,7.849,2.19,7.522,2.297c-0.176,0.051-0.381,0.129-0.586,0.2c-0.119,0.027-0.238,0.044-0.359,0.05  C6.372,2.545,6.175,2.475,6.015,2.348C5.991,2.319,5.964,2.319,5.94,2.293C5.497,1.894,4.888,1.729,4.306,1.851  c-0.07,0.002-0.135,0.03-0.182,0.078C3.737,2.195,3.378,2.499,3.05,2.834c-0.043,0.057-0.078,0.118-0.1,0.184  c-0.221,0.562-0.166,1.195,0.15,1.709c0.02,0.024,0.035,0.051,0.049,0.078C3.31,5.108,3.3,5.473,3.122,5.765  C3.108,5.764,3.095,5.774,3.095,5.79c0,0,0,0.002,0,0.003c-0.111,0.167-0.207,0.34-0.293,0.52c-0.014-0.001-0.025,0.01-0.027,0.023  c0,0.001,0,0.003,0,0.004C2.622,6.645,2.313,6.836,1.976,6.833H1.87C1.286,6.817,0.728,7.078,0.364,7.534  C0.315,7.587,0.282,7.65,0.261,7.718C0.14,8.194,0.052,8.68,0.001,9.169c-0.002,0.068,0.008,0.136,0.027,0.2  c0.191,0.551,0.623,0.983,1.174,1.173c0.035,0.007,0.068,0.016,0.102,0.028c0.318,0.111,0.545,0.392,0.586,0.726v0.027  c0.021,0.201,0.055,0.403,0.102,0.599v0.029c0.061,0.334-0.057,0.675-0.309,0.905c-0.027,0.009-0.055,0.026-0.072,0.05  c-0.449,0.361-0.711,0.905-0.715,1.48c0.006,0.069,0.023,0.136,0.051,0.199c0.225,0.458,0.48,0.9,0.766,1.323  c0.023,0.075,0.082,0.132,0.154,0.157c0.492,0.274,1.08,0.312,1.602,0.101c0.037,0.007,0.074-0.003,0.102-0.028  c0.1-0.033,0.205-0.05,0.309-0.049c0.111-0.001,0.223,0.018,0.328,0.058c0.111,0.042,0.217,0.102,0.309,0.175l0.459,0.4l0.029,0.028  c0.258,0.214,0.383,0.547,0.332,0.877c-0.02,0.03-0.029,0.066-0.029,0.102c-0.113,0.552,0.018,1.129,0.361,1.579  c0.049,0.056,0.111,0.098,0.18,0.128c0.467,0.231,0.955,0.412,1.461,0.542c0.074,0.028,0.156,0.028,0.23,0  c0.547-0.112,1.016-0.464,1.275-0.96c0.02-0.024,0.037-0.05,0.051-0.079c0.152-0.306,0.479-0.49,0.82-0.463h0.639  c0.34-0.009,0.654,0.17,0.82,0.463c0.02,0.025,0.037,0.051,0.051,0.079c0.26,0.496,0.729,0.848,1.277,0.96h0.1  c0.029,0,0.074,0,0.043-0.055c0.496-0.154,0.982-0.337,1.455-0.546c0.07-0.027,0.131-0.071,0.182-0.127  c0.273-0.326,0.422-0.738,0.418-1.163c-0.002-0.122-0.014-0.245-0.035-0.364c0.002-0.054-0.008-0.107-0.027-0.156  c-0.043-0.327,0.094-0.654,0.357-0.853c-0.01-0.012-0.01-0.029,0-0.04c0.012-0.011,0.029-0.011,0.041,0  c0.164-0.12,0.318-0.254,0.459-0.4h0.029c0.166-0.152,0.385-0.235,0.611-0.233c0.074,0,0.15,0.009,0.223,0.028  c0.029,0.006,0.059,0.016,0.086,0.028c0.035,0.007,0.068,0.016,0.102,0.028c0.109,0.041,0.223,0.071,0.336,0.094  c0.117,0.023,0.236,0.035,0.355,0.036c0.322,0.003,0.641-0.078,0.924-0.234l0.154-0.155c0.301-0.415,0.559-0.858,0.768-1.324  c0.031-0.063,0.047-0.13,0.051-0.201c-0.012-0.573-0.271-1.113-0.715-1.479c-0.025-0.024-0.051-0.051-0.074-0.078  c-0.234-0.195-0.352-0.497-0.309-0.799v-0.031c0.047-0.197,0.082-0.398,0.102-0.6v-0.022c0.1-0.592,0.535-0.739,0.588-0.739  c0.043,0.008,0.084-0.006,0.111-0.037c0.547-0.187,0.977-0.616,1.166-1.163c0.021-0.064,0.031-0.132,0.029-0.201  C19.956,8.704,19.872,8.218,19.749,7.742z M10.003,14.214c-2.268,0.019-4.121-1.803-4.141-4.069  C5.845,7.879,7.669,6.026,9.937,6.008c2.268-0.02,4.121,1.802,4.141,4.069c0,0.007,0,0.014,0,0.022  c0.021,2.252-1.789,4.094-4.043,4.115C10.024,14.214,10.015,14.214,10.003,14.214z"/>
    </svg>

    <svg x="0px" y="845px" width="20.001px" height="20px" viewBox="0 0 20.001 20" enable-background="new 0 0 20.001 20" xml:space="preserve">
        <path fill="#15C39A" d="M19.749,7.742c-0.025-0.066-0.059-0.127-0.102-0.184c-0.361-0.461-0.92-0.721-1.506-0.698H18.04  c-0.336-0.008-0.643-0.196-0.801-0.491c-0.014,0-0.027-0.01-0.029-0.025c0-0.001,0-0.001,0-0.003  c-0.105-0.184-0.199-0.336-0.307-0.52c-0.012-0.003-0.02-0.013-0.021-0.024c-0.178-0.293-0.188-0.658-0.027-0.959  c0.027-0.019,0.045-0.046,0.051-0.078c0.305-0.519,0.361-1.145,0.152-1.708c-0.02-0.068-0.057-0.132-0.102-0.185  c-0.342-0.321-0.699-0.625-1.072-0.908c-0.051-0.024-0.107-0.049-0.182-0.078c-0.584-0.12-1.191,0.044-1.635,0.442  c-0.031,0.008-0.057,0.026-0.076,0.05c-0.156,0.133-0.355,0.205-0.561,0.2c-0.123-0.003-0.248-0.029-0.359-0.078  c-0.191-0.082-0.387-0.147-0.586-0.201c-0.32-0.114-0.555-0.391-0.613-0.725c-0.006-0.035-0.014-0.069-0.027-0.103  c-0.076-0.597-0.439-1.12-0.973-1.399c-0.055-0.031-0.115-0.047-0.178-0.047c-0.459-0.028-0.92-0.028-1.377,0  c-0.064,0.005-0.125,0.021-0.182,0.05c-0.533,0.292-0.895,0.82-0.973,1.422c-0.02,0.02-0.031,0.049-0.027,0.078  C8.085,1.91,7.849,2.19,7.522,2.297c-0.176,0.051-0.381,0.129-0.586,0.2c-0.119,0.027-0.238,0.044-0.359,0.05  C6.372,2.545,6.175,2.475,6.015,2.348C5.991,2.319,5.964,2.319,5.94,2.293C5.497,1.894,4.888,1.729,4.306,1.851  c-0.07,0.002-0.135,0.03-0.182,0.078C3.737,2.195,3.378,2.499,3.05,2.834c-0.043,0.057-0.078,0.118-0.1,0.184  c-0.221,0.562-0.166,1.195,0.15,1.709c0.02,0.024,0.035,0.051,0.049,0.078C3.31,5.108,3.3,5.473,3.122,5.765  C3.108,5.764,3.095,5.774,3.095,5.79c0,0,0,0.002,0,0.003c-0.111,0.167-0.207,0.34-0.293,0.52c-0.014-0.001-0.025,0.01-0.027,0.023  c0,0.001,0,0.003,0,0.004C2.622,6.645,2.313,6.836,1.976,6.833H1.87C1.286,6.817,0.728,7.078,0.364,7.534  C0.315,7.587,0.282,7.65,0.261,7.718C0.14,8.194,0.052,8.68,0.001,9.169c-0.002,0.068,0.008,0.136,0.027,0.2  c0.191,0.551,0.623,0.983,1.174,1.173c0.035,0.007,0.068,0.016,0.102,0.028c0.318,0.111,0.545,0.392,0.586,0.726v0.027  c0.021,0.201,0.055,0.403,0.102,0.599v0.029c0.061,0.334-0.057,0.675-0.309,0.905c-0.027,0.009-0.055,0.026-0.072,0.05  c-0.449,0.361-0.711,0.905-0.715,1.48c0.006,0.069,0.023,0.136,0.051,0.199c0.225,0.458,0.48,0.9,0.766,1.323  c0.023,0.075,0.082,0.132,0.154,0.157c0.492,0.274,1.08,0.312,1.602,0.101c0.037,0.007,0.074-0.003,0.102-0.028  c0.1-0.033,0.205-0.05,0.309-0.049c0.111-0.001,0.223,0.018,0.328,0.058c0.111,0.042,0.217,0.102,0.309,0.175l0.459,0.4l0.029,0.028  c0.258,0.214,0.383,0.547,0.332,0.877c-0.02,0.03-0.029,0.066-0.029,0.102c-0.113,0.552,0.018,1.129,0.361,1.579  c0.049,0.056,0.111,0.098,0.18,0.128c0.467,0.231,0.955,0.412,1.461,0.542c0.074,0.028,0.156,0.028,0.23,0  c0.547-0.112,1.016-0.464,1.275-0.96c0.02-0.024,0.037-0.05,0.051-0.079c0.152-0.306,0.479-0.49,0.82-0.463h0.639  c0.34-0.009,0.654,0.17,0.82,0.463c0.02,0.025,0.037,0.051,0.051,0.079c0.26,0.496,0.729,0.848,1.277,0.96h0.1  c0.029,0,0.074,0,0.043-0.055c0.496-0.154,0.982-0.337,1.455-0.546c0.07-0.027,0.131-0.071,0.182-0.127  c0.273-0.326,0.422-0.738,0.418-1.163c-0.002-0.122-0.014-0.245-0.035-0.364c0.002-0.054-0.008-0.107-0.027-0.156  c-0.043-0.327,0.094-0.654,0.357-0.853c-0.01-0.012-0.01-0.029,0-0.04c0.012-0.011,0.029-0.011,0.041,0  c0.164-0.12,0.318-0.254,0.459-0.4h0.029c0.166-0.152,0.385-0.235,0.611-0.233c0.074,0,0.15,0.009,0.223,0.028  c0.029,0.006,0.059,0.016,0.086,0.028c0.035,0.007,0.068,0.016,0.102,0.028c0.109,0.041,0.223,0.071,0.336,0.094  c0.117,0.023,0.236,0.035,0.355,0.036c0.322,0.003,0.641-0.078,0.924-0.234l0.154-0.155c0.301-0.415,0.559-0.858,0.768-1.324  c0.031-0.063,0.047-0.13,0.051-0.201c-0.012-0.573-0.271-1.113-0.715-1.479c-0.025-0.024-0.051-0.051-0.074-0.078  c-0.234-0.195-0.352-0.497-0.309-0.799v-0.031c0.047-0.197,0.082-0.398,0.102-0.6v-0.022c0.1-0.592,0.535-0.739,0.588-0.739  c0.043,0.008,0.084-0.006,0.111-0.037c0.547-0.187,0.977-0.616,1.166-1.163c0.021-0.064,0.031-0.132,0.029-0.201  C19.956,8.704,19.872,8.218,19.749,7.742z M10.003,14.214c-2.268,0.019-4.121-1.803-4.141-4.069  C5.845,7.879,7.669,6.026,9.937,6.008c2.268-0.02,4.121,1.802,4.141,4.069c0,0.007,0,0.014,0,0.022  c0.021,2.252-1.789,4.094-4.043,4.115C10.024,14.214,10.015,14.214,10.003,14.214z"/>
    </svg>

    <svg x="0px" y="870px" width="25px" height="25.492px" viewBox="0 0 25 25.492" enable-background="new 0 0 25 25.492" xml:space="preserve">
        <g>
            <path fill="#BBBBBC" d="M24.986,11.654C24.479,4.987,18.96,0,12.481,0c-0.694,0-1.414,0.055-2.135,0.187   C4.108,1.255-0.399,6.959,0.028,13.307c0.213,3.439,1.813,6.427,4.186,8.533c-0.613,1.066-1.094,1.679-2.053,2.56   c-0.428,0.372-0.16,1.093,0.4,1.093c0.053,0,0.133,0,0.186,0c1.627,0,3.787-0.4,5.281-1.308c1.412,0.508,2.906,0.775,4.479,0.775   c0.721,0,1.467-0.054,2.213-0.188C20.959,23.679,25.412,17.973,24.986,11.654z"/>
            <g>
                <circle fill="#FFFFFF" cx="12.534" cy="12.747" r="1.573"/>
                <circle fill="#FFFFFF" cx="7.335" cy="12.747" r="1.573"/>
                <circle fill="#FFFFFF" cx="17.706" cy="12.747" r="1.573"/>
            </g>
        </g>
    </svg>

    <svg x="0px" y="900px" width="25px" height="25.492px" viewBox="0 0 25 25.492" enable-background="new 0 0 25 25.492" xml:space="preserve">
        <g>
            <path fill="#15C39A" d="M24.986,11.654C24.479,4.987,18.96,0,12.481,0c-0.694,0-1.414,0.055-2.135,0.187   C4.108,1.255-0.399,6.959,0.028,13.307c0.213,3.439,1.813,6.427,4.186,8.533c-0.613,1.066-1.094,1.679-2.053,2.56   c-0.428,0.372-0.16,1.093,0.4,1.093c0.053,0,0.133,0,0.186,0c1.627,0,3.787-0.4,5.281-1.308c1.412,0.508,2.906,0.775,4.479,0.775   c0.721,0,1.467-0.054,2.213-0.188C20.959,23.679,25.412,17.973,24.986,11.654z"/>
            <g>
                <circle fill="#FFFFFF" cx="12.534" cy="12.747" r="1.573"/>
                <circle fill="#FFFFFF" cx="7.335" cy="12.747" r="1.573"/>
                <circle fill="#FFFFFF" cx="17.706" cy="12.747" r="1.573"/>
            </g>
        </g>
    </svg>
	
	<svg x="0px" y="930px"
	 width="20px" height="20px" viewBox="0 0 20 20" enable-background="new 0 0 20 20" xml:space="preserve">
		<g>
			<g>
				<g>
					<path fill="#BBBBBC" d="M10,20C4.486,20,0,15.513,0,10C0,4.485,4.486,0,10,0s10,4.485,10,10C20,15.513,15.514,20,10,20z
						 M10,1.025c-4.948,0-8.974,4.026-8.974,8.975c0,4.947,4.025,8.974,8.974,8.974s8.974-4.027,8.974-8.974
						C18.974,5.052,14.948,1.025,10,1.025z"/>
				</g>
			</g>
			<g>
				<g>
					<path fill="#BBBBBC" d="M12.649,13.214c0-0.186-0.146-0.33-0.332-0.33h-0.993V7.586c0-0.187-0.145-0.331-0.331-0.331H7.682
						c-0.187,0-0.331,0.145-0.331,0.331v1.655c0,0.187,0.145,0.332,0.331,0.332h0.994v3.311H7.682c-0.187,0-0.331,0.145-0.331,0.33
						v1.656c0,0.188,0.145,0.332,0.331,0.332h4.636c0.187,0,0.332-0.145,0.332-0.332V13.214z"/>
				</g>
				<g>
					<path fill="#BBBBBC" d="M11.324,3.942c0-0.186-0.145-0.33-0.331-0.33H9.006c-0.187,0-0.33,0.145-0.33,0.33v1.656
						c0,0.187,0.144,0.331,0.33,0.331h1.987c0.187,0,0.331-0.145,0.331-0.331V3.942z"/>
				</g>
			</g>
		</g>
	</svg>
	
	<svg x="0px" y="955px"
	 width="20px" height="20px" viewBox="0 0 20 20" enable-background="new 0 0 20 20" xml:space="preserve">
		<g>
			<g>
				<g>
					<path fill="#15C39A" d="M10,20C4.486,20,0,15.514,0,10C0,4.485,4.486,0,10,0s10,4.485,10,10C20,15.514,15.514,20,10,20z
						 M10,1.025c-4.948,0-8.974,4.026-8.974,8.975c0,4.947,4.025,8.975,8.974,8.975s8.974-4.027,8.974-8.975
						C18.974,5.052,14.948,1.025,10,1.025z"/>
				</g>
			</g>
			<g>
				<g>
					<path fill="#15C39A" d="M12.649,13.215c0-0.186-0.146-0.33-0.332-0.33h-0.993V7.586c0-0.187-0.145-0.331-0.331-0.331H7.682
						c-0.187,0-0.331,0.145-0.331,0.331v1.655c0,0.187,0.145,0.332,0.331,0.332h0.994v3.312H7.682c-0.187,0-0.331,0.145-0.331,0.33
						v1.656c0,0.188,0.145,0.332,0.331,0.332h4.636c0.187,0,0.332-0.145,0.332-0.332V13.215z"/>
				</g>
				<g>
					<path fill="#15C39A" d="M11.324,3.942c0-0.186-0.145-0.33-0.331-0.33H9.006c-0.187,0-0.33,0.145-0.33,0.33v1.656
						c0,0.187,0.144,0.331,0.33,0.331h1.987c0.187,0,0.331-0.145,0.331-0.331V3.942z"/>
				</g>
			</g>
		</g>
	</svg>
	
	
	<svg x="0px" y="980px"
	 width="50px" height="50px" viewBox="0 0 51.579 50.146" enable-background="new 0 0 51.579 50.146" xml:space="preserve">
		<g>
			<path fill="#F0D636" d="M38.618,50.142l-5.59-7.307c0,0,7.773-2.843,11.434-9.638c-0.053,0.053,7.117,9.69,7.117,9.69
				l-11.395,0.262L38.618,50.142z"/>
			<path fill="#F0D636" d="M13.115,50.146l5.174-6.67c0,0-8.102-2.416-11.76-9.21C6.582,34.317,0,42.993,0,42.993h11.6L13.115,50.146z
				"/>
			<circle fill="#FFFFFF" cx="25.064" cy="22.263" r="22.263"/>
			<circle fill="#FFD027" cx="25.064" cy="22.263" r="21.46"/>
			<path fill="#F0D636" d="M8.488,35.894c1.324,1.611,2.883,3.025,4.619,4.193l26.27-33.811c-1.398-1.252-2.963-2.321-4.654-3.176
				L8.488,35.894z"/>
			<path fill="#F0D636" d="M25.064,0.802c-1.582,0-3.123,0.176-4.607,0.501L3.625,21.376c-0.012,0.294-0.021,0.589-0.021,0.887
				c0,3.4,0.795,6.613,2.199,9.471L31.758,1.874C29.653,1.182,27.402,0.802,25.064,0.802z"/>
			<path fill="#F0D636" d="M25.064,43.724c1.428,0,2.825-0.143,4.176-0.409l17.225-22.57c-0.174-2.479-0.764-4.843-1.711-7.019
				L21.76,43.47C22.838,43.637,23.939,43.724,25.064,43.724z"/>
			<g>
				<path fill="#603A13" d="M17.977,19.927c0,0.45-0.115,0.862-0.346,1.235c-0.229,0.366-0.531,0.629-0.906,0.791
					c0.461,0.135,0.834,0.383,1.123,0.748c0.277,0.365,0.426,0.796,0.445,1.293c0.01,1.035-0.316,1.826-0.979,2.373
					c-0.66,0.546-1.543,0.819-2.645,0.819c-1.072,0-1.955-0.259-2.645-0.776s-1.035-1.232-1.035-2.142
					c0-0.538,0.148-1.011,0.445-1.424c0.307-0.422,0.699-0.71,1.178-0.863c-0.307-0.115-0.58-0.359-0.818-0.733
					c-0.25-0.383-0.375-0.786-0.375-1.208c0-0.863,0.324-1.553,0.979-2.07c0.641-0.518,1.398-0.776,2.271-0.776
					c0.928,0,1.721,0.258,2.371,0.776c0.652,0.518,0.979,1.179,0.979,1.983L17.977,19.927z M14.654,22.788
					c-0.479-0.019-0.881,0.1-1.207,0.358c-0.326,0.257-0.484,0.604-0.473,1.043c0.018,0.411,0.166,0.72,0.445,0.931
					c0.295,0.219,0.68,0.328,1.15,0.328c0.525,0,0.943-0.124,1.248-0.372c0.299-0.237,0.447-0.581,0.447-1.029
					c-0.02-0.381-0.176-0.696-0.475-0.944c-0.297-0.238-0.672-0.356-1.121-0.356L14.654,22.788z M13.332,20.142
					c0.012,0.345,0.135,0.618,0.373,0.82c0.23,0.2,0.543,0.301,0.936,0.301c0.402,0,0.729-0.115,0.977-0.344
					c0.252-0.231,0.375-0.532,0.375-0.907c-0.02-0.307-0.152-0.565-0.402-0.776c-0.27-0.221-0.586-0.331-0.949-0.331
					s-0.68,0.11-0.949,0.331c-0.258,0.221-0.389,0.518-0.389,0.891L13.332,20.142z"/>
				<path fill="#603A13" d="M19.486,22.586c0-1.563,0.34-2.841,1.021-3.838c0.678-0.997,1.643-1.495,2.889-1.495
					c1.207,0,2.156,0.45,2.846,1.351c0.691,0.911,1.035,2.139,1.035,3.68c0,1.534-0.373,2.731-1.121,3.594
					c-0.746,0.863-1.672,1.295-2.775,1.295c-1.092,0-2.012-0.412-2.758-1.236c-0.75-0.814-1.123-1.932-1.123-3.35H19.486z
					 M23.367,19.079c-1.313,0-1.969,1.145-1.969,3.436c0,0.824,0.174,1.509,0.516,2.056c0.346,0.546,0.807,0.82,1.381,0.82
					c0.613,0,1.104-0.274,1.469-0.82c0.363-0.556,0.543-1.299,0.543-2.229c0-0.958-0.162-1.744-0.486-2.356
					c-0.336-0.623-0.811-0.935-1.424-0.935L23.367,19.079z"/>
				<path fill="#603A13" d="M28.198,20.156c0-0.794,0.197-1.457,0.59-1.983c0.383-0.518,0.93-0.777,1.639-0.777
					c0.691,0,1.236,0.239,1.639,0.719c0.404,0.48,0.605,1.112,0.605,1.897c0,0.768-0.217,1.381-0.648,1.841s-0.965,0.69-1.596,0.69
					c-0.594,0-1.111-0.22-1.553-0.661c-0.439-0.441-0.66-1.021-0.66-1.74L28.198,20.156z M30.411,18.705
					c-0.563,0-0.848,0.45-0.848,1.351c0,0.355,0.074,0.647,0.217,0.877c0.143,0.229,0.346,0.345,0.604,0.345
					c0.268,0,0.484-0.129,0.648-0.389c0.152-0.248,0.229-0.565,0.229-0.949c0-0.833-0.279-1.25-0.834-1.25L30.411,18.705z
					 M35.401,17.871c0.123-0.21,0.283-0.355,0.475-0.432c0.182-0.067,0.383-0.052,0.605,0.043c0.43,0.259,0.521,0.605,0.271,1.036
					c-0.076,0.134-0.393,0.637-0.949,1.509c-0.566,0.882-0.982,1.558-1.25,2.027c-0.172,0.316-0.359,0.647-0.561,0.992
					c-0.201,0.345-0.389,0.661-0.561,0.948c-0.088,0.145-0.16,0.262-0.217,0.353s-0.096,0.156-0.115,0.194l-1.365,2.299
					c-0.094,0.164-0.254,0.27-0.475,0.316c-0.211,0.039-0.396,0.016-0.561-0.07c-0.172-0.096-0.289-0.24-0.344-0.433
					c-0.059-0.182-0.029-0.382,0.084-0.603l2.545-4.041l2.445-4.212L35.401,17.871z M34.583,24.858c0-0.795,0.195-1.443,0.588-1.941
					c0.385-0.488,0.939-0.733,1.668-0.733c0.709,0,1.27,0.236,1.682,0.705c0.414,0.47,0.619,1.103,0.619,1.898
					c0,0.775-0.215,1.394-0.648,1.855c-0.43,0.459-0.977,0.688-1.639,0.688c-0.613,0-1.145-0.225-1.594-0.676
					c-0.441-0.439-0.664-1.029-0.664-1.767L34.583,24.858z M36.809,23.392c-0.564,0-0.848,0.479-0.848,1.438
					c0,0.394,0.072,0.695,0.217,0.906c0.143,0.22,0.344,0.33,0.602,0.33c0.279,0,0.5-0.115,0.662-0.345
					c0.164-0.23,0.236-0.542,0.215-0.934c0-0.93-0.277-1.395-0.832-1.395H36.809z"/>
			</g>
		</g>
		</svg>
		
		
		<svg x="0px" y="1040px"
	 width="45px" height="56.842px" viewBox="0 0 45 56.842" enable-background="new 0 0 45 56.842" xml:space="preserve">
		<g>
			<polygon fill="#FB726D" points="31.303,0 0,0 0,56.842 45,56.842 45,13.734 	"/>
			<polygon fill="#FF9794" points="31.303,13.734 45,13.734 31.303,0 	"/>
			<polygon fill="#D85E58" points="34.415,13.734 45,17.35 45,13.734 	"/>
			<rect x="10.699" y="15.542" fill="#E1524B" width="3.756" height="7.971"/>
			<rect x="14.645" y="34.698" fill="#E1524B" width="15.709" height="4.11"/>
			<rect x="10.508" y="38.809" fill="#E1524B" width="4.137" height="4.109"/>
			<rect x="30.354" y="38.809" fill="#E1524B" width="4.137" height="4.109"/>
		</g>
		</svg>
		
		
		<svg x="0px" y="1100px"
	 width="45px" height="55.692px" viewBox="0 0 45 55.692" enable-background="new 0 0 45 55.692" xml:space="preserve">
		<g>
			<circle fill="#5CA61F" cx="22.5" cy="33.192" r="22.5"/>
			<path fill="#65C024" d="M22.736,6.794c1.461,0,2.895,0.126,4.29,0.366V3.788h-8.579v3.373C19.842,6.921,21.273,6.794,22.736,6.794z
				"/>
			<circle fill="#65C024" cx="22.5" cy="31.968" r="22.5"/>
			<path fill="#FFFFFF" d="M40.43,31.968c0,9.903-8.029,17.932-17.93,17.932c-9.906,0-17.936-8.028-17.936-17.932
				c0-9.904,8.029-17.934,17.936-17.934C32.401,14.034,40.43,22.063,40.43,31.968z"/>
			<path fill="#DADADA" d="M22.5,15.234c9.711,0,17.614,7.72,17.918,17.359c0.006-0.209,0.012-0.416,0.012-0.625
				c0-9.904-8.029-17.934-17.93-17.934c-9.906,0-17.936,8.03-17.936,17.934c0,0.209,0.008,0.416,0.016,0.625
				C4.883,22.954,12.787,15.234,22.5,15.234z"/>
			<path fill="#454545" d="M29.842,38.529l-6.145-6.146V19.338c0-0.653-0.531-1.182-1.184-1.182s-1.182,0.529-1.182,1.182v10.683
				v3.343l2.365,2.364l4.475,4.474c0.461,0.462,1.209,0.462,1.67,0C30.305,39.739,30.305,38.991,29.842,38.529z"/>
			<rect x="18.447" y="4.481" opacity="0.2" width="8.579" height="0.869"/>
			
				<rect x="37.881" y="9.471" transform="matrix(0.7072 0.707 -0.707 0.7072 20.1751 -25.5216)" fill="#65C024" width="6.037" height="4.251"/>
			<path fill="#65C024" d="M30.256,2.229c0,1.23-0.996,2.228-2.227,2.228H17.443c-1.232,0-2.229-0.998-2.229-2.228l0,0
				C15.215,0.998,16.211,0,17.443,0H28.03C29.26,0,30.256,0.998,30.256,2.229L30.256,2.229z"/>
		</g>
		</svg>
		
		
		<svg x="0px" y="1160px"
	 width="45px" height="45px" viewBox="0 0 45 45" enable-background="new 0 0 45 45" xml:space="preserve">
		<path fill="#FFD02E" d="M22.5,0L22.5,0C10.072,0,0,10.074,0,22.5C0,34.926,10.072,45,22.5,45C34.926,45,45,34.926,45,22.5V0H22.5z
			 M25.116,29.809h-3.524v-6.224c0-0.324,0.006-0.682,0.016-1.078c0.008-0.394,0.053-1.363,0.131-2.902h-0.09l-2.861,10.204h-3.65
			l-2.904-10.224h-0.088c0.137,1.741,0.205,3.094,0.205,4.059v6.165H8.951V15.614h5.107l2.961,10.078h0.078l2.9-10.078h5.118V29.809z
			 M36.602,18.692H32.01v2.233h4.252v3.078H32.01v2.68h4.592v3.126h-8.428V15.614h8.428V18.692z"/>
		</svg>

    <svg x="0px" y="1210px" width="25px" height="25px" viewBox="0 0 25 25" style="enable-background:new 0 0 25 25;" xml:space="preserve">
        <g>
            <g>
                <g>
                    <path fill="#BBBBBC" d="M12.5,25C5.6,25,0,19.4,0,12.5C0,5.6,5.6,0,12.5,0S25,5.6,25,12.5C25,19.4,19.4,25,12.5,25z M12.5,1.3
                        c-6.2,0-11.2,5-11.2,11.2c0,6.2,5,11.2,11.2,11.2c6.2,0,11.2-5,11.2-11.2C23.7,6.3,18.7,1.3,12.5,1.3z"/>
                </g>
            </g>
            <g>
                <g>
                    <path fill="#BBBBBC" d="M15.8,16.5c0-0.2-0.2-0.4-0.4-0.4h-1.2V9.5c0-0.2-0.2-0.4-0.4-0.4H9.6c-0.2,0-0.4,0.2-0.4,0.4v2.1
                        c0,0.2,0.2,0.4,0.4,0.4h1.2v4.1H9.6c-0.2,0-0.4,0.2-0.4,0.4v2.1c0,0.2,0.2,0.4,0.4,0.4h5.8c0.2,0,0.4-0.2,0.4-0.4V16.5z"/>
                </g>
                <g>
                    <path fill="#BBBBBC" d="M14.2,4.9c0-0.2-0.2-0.4-0.4-0.4h-2.5c-0.2,0-0.4,0.2-0.4,0.4V7c0,0.2,0.2,0.4,0.4,0.4h2.5
                        c0.2,0,0.4-0.2,0.4-0.4V4.9z"/>
                </g>
            </g>
        </g>
    </svg>

     <svg x="0px" y="1240px" width="25px" height="25px" viewBox="0 0 25 25" style="enable-background:new 0 0 25 25;" xml:space="preserve">
        <g>
            <g>
                <g>
                    <path fill="#15C39A" d="M12.5,25C5.6,25,0,19.4,0,12.5C0,5.6,5.6,0,12.5,0S25,5.6,25,12.5C25,19.4,19.4,25,12.5,25z M12.5,1.3
                        c-6.2,0-11.2,5-11.2,11.2c0,6.2,5,11.2,11.2,11.2c6.2,0,11.2-5,11.2-11.2C23.7,6.3,18.7,1.3,12.5,1.3z"/>
                </g>
            </g>
            <g>
                <g>
                    <path fill="#15C39A" d="M15.8,16.5c0-0.2-0.2-0.4-0.4-0.4h-1.2V9.5c0-0.2-0.2-0.4-0.4-0.4H9.6c-0.2,0-0.4,0.2-0.4,0.4v2.1
                        c0,0.2,0.2,0.4,0.4,0.4h1.2v4.1H9.6c-0.2,0-0.4,0.2-0.4,0.4v2.1c0,0.2,0.2,0.4,0.4,0.4h5.8c0.2,0,0.4-0.2,0.4-0.4V16.5z"/>
                </g>
                <g>
                    <path fill="#15C39A" d="M14.2,4.9c0-0.2-0.2-0.4-0.4-0.4h-2.5c-0.2,0-0.4,0.2-0.4,0.4V7c0,0.2,0.2,0.4,0.4,0.4h2.5
                        c0.2,0,0.4-0.2,0.4-0.4V4.9z"/>
                </g>
            </g>
        </g>
    </svg>

    <svg x="0px" y="1270px" width="20px" height="20px" viewBox="0 0 20 20" enable-background="new 0 0 20 20" xml:space="preserve">
        <g>
            <g>
                <g>
                    <path fill="#BBBBBC" d="M10,20C4.486,20,0,15.513,0,10C0,4.485,4.486,0,10,0c5.514,0,10,4.485,10,10C20,15.513,15.514,20,10,20z      M10,1.025c-4.95,0-8.975,4.026-8.975,8.975c0,4.947,4.025,8.974,8.975,8.974c4.947,0,8.973-4.027,8.973-8.974     C18.973,5.052,14.948,1.025,10,1.025z"/>
                </g>
            </g>
            <g>
                <g>
                    <path fill="#BBBBBC" d="M12.649,13.214c0-0.186-0.145-0.33-0.332-0.33h-0.992V7.586c0-0.187-0.145-0.331-0.332-0.331H7.682     c-0.188,0-0.332,0.145-0.332,0.331v1.655c0,0.187,0.145,0.332,0.332,0.332h0.994v3.311H7.682c-0.188,0-0.332,0.145-0.332,0.33     v1.656c0,0.188,0.145,0.332,0.332,0.332h4.635c0.188,0,0.332-0.145,0.332-0.332V13.214z"/>
                </g>
                <g>
                    <path fill="#BBBBBC" d="M11.325,3.942c0-0.186-0.145-0.33-0.332-0.33H9.006c-0.188,0-0.33,0.145-0.33,0.33v1.656     c0,0.187,0.143,0.331,0.33,0.331h1.987c0.188,0,0.332-0.145,0.332-0.331V3.942z"/>
                </g>
            </g>
        </g>
    </svg>

    <svg x="0px" y="1300px" width="20px" height="20px" viewBox="0 0 20 20" enable-background="new 0 0 20 20" xml:space="preserve">
        <g>
            <g>
                <g>
                    <path fill="#15C39A" d="M10,20C4.486,20,0,15.513,0,10C0,4.485,4.486,0,10,0c5.514,0,10,4.485,10,10C20,15.513,15.514,20,10,20z      M10,1.025c-4.95,0-8.975,4.026-8.975,8.975c0,4.947,4.025,8.974,8.975,8.974c4.947,0,8.973-4.027,8.973-8.974     C18.973,5.052,14.948,1.025,10,1.025z"/>
                </g>
            </g>
            <g>
                <g>
                    <path fill="#15C39A" d="M12.649,13.214c0-0.186-0.145-0.33-0.332-0.33h-0.992V7.586c0-0.187-0.145-0.331-0.332-0.331H7.682     c-0.188,0-0.332,0.145-0.332,0.331v1.655c0,0.187,0.145,0.332,0.332,0.332h0.994v3.311H7.682c-0.188,0-0.332,0.145-0.332,0.33     v1.656c0,0.188,0.145,0.332,0.332,0.332h4.635c0.188,0,0.332-0.145,0.332-0.332V13.214z"/>
                </g>
                <g>
                    <path fill="#15C39A" d="M11.325,3.942c0-0.186-0.145-0.33-0.332-0.33H9.006c-0.188,0-0.33,0.145-0.33,0.33v1.656     c0,0.187,0.143,0.331,0.33,0.331h1.987c0.188,0,0.332-0.145,0.332-0.331V3.942z"/>
                </g>
            </g>
        </g>
    </svg>


    <svg xmlns="http://www.w3.org/2000/svg" x="0px" y="1330px" width="20px" height="20.075px" viewBox="0 0 20 20.075" enable-background="new 0 0 20 20.075" xml:space="preserve">
        <g transform="matrix(0, -1, 1, 0, 0.152622, 100)">
            <g>
                <path fill="#BBBBBC" d="M90.629,0.462c0-0.369,0.301-0.641,0.668-0.602c0,0-0.217-0.029,0.006,0C96.212,0.516,100,4.72,100,9.809    c0,5.544-4.494,10.039-10.038,10.039c-5.544,0-10.037-4.494-10.037-10.039c0-5.088,3.783-9.291,8.691-9.947    c0.225-0.031,0.012-0.002,0.012-0.002c0.367-0.037,0.666,0.232,0.666,0.602v11.428c0,0.185-0.105,0.229-0.234,0.1L86.429,9.35    c-0.629-0.631-1.574,0.316-0.943,0.947l3.9,3.951c0.325,0.328,0.85,0.328,1.176-0.004l3.876-3.947    c0.63-0.631-0.314-1.578-0.944-0.947l-2.63,2.639c-0.13,0.129-0.235,0.086-0.235-0.1V0.462z"/>
            </g>
        </g>
    </svg>
	
	<svg xmlns="http://www.w3.org/2000/svg" x="0px" y="1360px" width="20px" height="20.075px" viewBox="0 0 20 20.075" enable-background="new 0 0 20 20.075" xml:space="preserve">
        <g transform="matrix(0, -1, 1, 0, 0.152622, 100)">
            <g>
                <path fill="#15C39A" d="M90.629,0.462c0-0.369,0.301-0.641,0.668-0.602c0,0-0.217-0.029,0.006,0C96.212,0.516,100,4.72,100,9.809    c0,5.544-4.494,10.039-10.038,10.039c-5.544,0-10.037-4.494-10.037-10.039c0-5.088,3.783-9.291,8.691-9.947    c0.225-0.031,0.012-0.002,0.012-0.002c0.367-0.037,0.666,0.232,0.666,0.602v11.428c0,0.185-0.105,0.229-0.234,0.1L86.429,9.35    c-0.629-0.631-1.574,0.316-0.943,0.947l3.9,3.951c0.325,0.328,0.85,0.328,1.176-0.004l3.876-3.947    c0.63-0.631-0.314-1.578-0.944-0.947l-2.63,2.639c-0.13,0.129-0.235,0.086-0.235-0.1V0.462z"/>
            </g>
        </g>
    </svg>

    <svg x="0px" y="1390px" width="59.447px" height="58.224px" viewBox="0 0 59.447 58.224" enable-background="new 0 0 59.447 58.224" xml:space="preserve">
        <g transform="matrix(1.25 0 0 -1.25 0 45)">
            <g>
                <g>
                    <path fill="#15C39A" d="M32.299,32.174l-0.184-0.039c-2.63-0.638-4.294-4.047-4.449-9.117c-0.097-3.172,0.455-5.44,1.552-6.382     c0.499-0.43,1.124-0.58,1.852-0.446l0.191,0.04c2.629,0.635,4.293,4.043,4.446,9.115c0.1,3.171-0.451,5.438-1.547,6.382     C33.658,32.157,33.032,32.308,32.299,32.174 M31.07,12.486c-1.973-0.361-3.748,0.078-5.134,1.271     c-1.953,1.68-2.924,4.634-2.805,8.543c0.21,6.854,3.716,12.269,8.725,13.479c2.173,0.525,4.091,0.107,5.58-1.173     c1.953-1.682,2.925-4.636,2.805-8.544c-0.209-6.846-3.713-12.264-8.723-13.481C31.369,12.543,31.218,12.513,31.07,12.486"/>
                    <path fill="#15C39A" d="M14.534-10.579c-1.07,0-2.077,0.655-2.474,1.716c-0.513,1.366,0.179,2.888,1.545,3.402     c0.447,0.166,11.097,4.106,27.128,5.443c1.456,0.127,2.732-0.959,2.854-2.413c0.121-1.455-0.961-2.731-2.415-2.852     c-15.309-1.277-25.61-5.088-25.712-5.125C15.155-10.524,14.841-10.579,14.534-10.579"/>
                    <path fill="#15C39A" d="M2.645-2.652c-1.063,0-2.064,0.645-2.468,1.695c-0.523,1.362,0.156,2.891,1.517,3.413     c0.716,0.276,17.854,6.771,43.081,8.099c1.471,0.091,2.702-1.042,2.779-2.499c0.077-1.457-1.043-2.7-2.5-2.777     C20.717,3.997,3.758-2.411,3.588-2.476C3.278-2.595,2.959-2.652,2.645-2.652"/>
                    <g>
                        <path fill="#15C39A" d="M20.429,14.645c0.405-0.267,0.661-0.652,0.766-1.157c0.1-0.484,0.016-0.923-0.253-1.318      c-0.269-0.396-0.655-0.645-1.159-0.75L9.066,9.2C8.519,9.087,8.054,9.166,7.669,9.437c-0.384,0.271-0.631,0.669-0.741,1.195      c-0.109,0.525-0.016,1.027,0.28,1.505l5.351,8.767c0.602,1.001,1.041,1.975,1.318,2.92c0.275,0.945,0.339,1.774,0.191,2.489      c-0.195,0.946-0.702,1.695-1.517,2.249c-0.817,0.554-1.666,0.74-2.548,0.557c-0.609-0.127-1.182-0.459-1.716-0.997      c-0.535-0.538-0.985-1.196-1.35-1.972c-0.274-0.583-0.705-0.935-1.293-1.057c-0.462-0.096-0.925-0.006-1.387,0.271      c-0.463,0.277-0.74,0.636-0.831,1.077c-0.066,0.315-0.027,0.657,0.116,1.027c0.142,0.369,0.38,0.807,0.714,1.315      c0.633,0.964,1.424,1.796,2.375,2.497c0.951,0.701,1.909,1.152,2.876,1.352c1.387,0.287,2.666,0.245,3.839-0.125      c1.173-0.371,2.149-1.012,2.93-1.924c0.781-0.912,1.305-2.02,1.576-3.322c0.266-1.282,0.197-2.671-0.205-4.168      c-0.402-1.496-1.053-2.985-1.952-4.464l-3.121-5.085l6.493,1.345C19.568,14.992,20.023,14.911,20.429,14.645z"/>
                    </g>
                </g>
            </g>
        </g>
    </svg>


</svg>
