<?xml version="1.0" encoding="utf-8"?>
<!-- Generator: Adobe Illustrator 16.0.0, SVG Export Plug-In . SVG Version: 6.00 Build 0)  -->
<!DOCTYPE svg PUBLIC "-//W3C//DTD SVG 1.1//EN" "http://www.w3.org/Graphics/SVG/1.1/DTD/svg11.dtd">
<svg version="1.1" id="Layer_1" xmlns="http://www.w3.org/2000/svg" xmlns:xlink="http://www.w3.org/1999/xlink" x="0px" y="0px" width="400px" height="2000px" viewBox="0 0 400 2000" enable-background="new 0 0 400 2000" xml:space="preserve">

    <svg x="0px" y="0px" width="79px" height="16.61px" viewBox="0 0 79 16.61" enable-background="new 0 0 79 16.61" xml:space="preserve">
        <g>
            <path fill="#15C39A" d="M79,5.615c0,0.541-0.438,0.979-0.979,0.979H0.979C0.438,6.594,0,6.156,0,5.615V5.574   c0-0.541,0.438-0.979,0.979-0.979h77.041C78.562,4.594,79,5.033,79,5.574V5.615z"/>
            <path fill="#15C39A" d="M45.662,16.61c-0.1,0-0.2-0.03-0.285-0.089l-5.661-3.936l-5.662,3.936   c-0.153,0.106-0.352,0.118-0.517,0.032s-0.269-0.257-0.269-0.443V0.5c0-0.276,0.224-0.5,0.5-0.5h11.894c0.276,0,0.5,0.224,0.5,0.5   v15.61c0,0.186-0.104,0.357-0.269,0.443C45.82,16.591,45.741,16.61,45.662,16.61z"/>
            <path fill="#15C39A" d="M39.716,11.476c0.1,0,0.199,0.03,0.285,0.089l5.161,3.588V1H34.269v14.153l5.162-3.588   C39.516,11.506,39.616,11.476,39.716,11.476z"/>
        </g>
    </svg>

    <svg x="0px" y="20px" width="44.996px" height="36.554px" viewBox="0 0 44.996 36.554" enable-background="new 0 0 44.996 36.554" xml:space="preserve">
        <g>
            <g>
                <g>
                    <path fill-rule="evenodd" clip-rule="evenodd" fill="#15C39A" d="M44.928,14.197c-0.012-0.322-0.021-0.647-0.026-0.967     c-0.004-0.254-0.002-0.508,0.009-0.763c0.024-0.593,0.011-1.204-0.004-1.8c-0.01-0.428-0.005-0.858-0.005-1.285     c0-0.628,0-1.257-0.012-1.883C44.88,7.069,44.987,6.375,44.736,6c-0.351-0.525-1.267-0.385-1.799-0.385     c-0.968,0-1.919,0.028-2.89,0.028c-1.118,0-2.232,0.002-3.354-0.003c-0.414-0.002-0.827-0.007-1.242-0.01     c-0.826-0.007-1.653-0.012-2.481,0.005c-0.803,0.016-1.606,0.036-2.409,0.027c-1.417-0.01-2.833-0.03-4.251-0.016     c-0.631,0.005-1.261,0.009-1.889-0.015c-0.789-0.03-1.047-0.664-1.652-1.047c-0.158-0.109-0.314-0.219-0.475-0.328     c-0.459-0.281-0.919-0.561-1.38-0.84c-0.167-0.081-0.339-0.161-0.507-0.24c-0.65-0.291-1.302-0.581-1.953-0.871     c-0.112-0.036-0.225-0.072-0.336-0.108c-0.709-0.235-1.416-0.47-2.124-0.705c-0.104-0.028-0.205-0.056-0.307-0.084     c-0.802-0.188-1.602-0.377-2.401-0.564c-0.094,0.055-0.158,0.014-0.217-0.063c-0.722-0.038-1.428-0.167-2.125-0.339     c-0.224-0.024-0.451-0.047-0.674-0.07C9.512,0.288,8.757,0.206,7.997,0.123C7.724,0.112,7.45,0.102,7.178,0.092     C6.414,0.061,5.648,0.031,4.883,0C4.641,0.063,4.365,0.093,4.388,0.45c0.01,1.55,0.009,3.1,0.04,4.651     c0.009,0.433-0.133,0.568-0.559,0.547C3.218,5.615,2.564,5.636,1.908,5.636c-0.492,0-1.298-0.132-1.563,0.408     c-0.141,0.29-0.128,0.658-0.183,0.968C0.039,7.725,0.134,8.444,0.085,9.161c-0.098,1.486,0.083,3.004,0.083,4.49     c0,0.757,0.05,1.514,0.041,2.271c-0.007,0.834-0.095,1.656-0.067,2.484c0.021,0.648-0.004,1.295-0.018,1.942     c-0.021,0.973-0.035,1.991-0.039,2.982c-0.007,1.53,0.012,3.106,0.027,4.654c0.006,0.706,0.099,1.418,0.021,2.113     c-0.09,0.785-0.021,1.614-0.021,2.405C0.112,33.145,0,33.756,0,34.41c0,0.573-0.005,1.155,0.327,1.651     c0.229,0.31,0.492,0.287,0.854,0.294c2.366,0.046,4.729-0.111,7.097-0.1c1.355,0.005,2.708,0.112,4.061,0.19     c2.954,0.169,5.928,0.119,8.891-0.004c3.267-0.136,6.506-0.01,9.765-0.044c1.659-0.019,3.39,0.128,5.034,0.038     c1.526-0.084,3.057-0.112,4.588-0.122c1.057-0.008,3.029,0.434,3.934-0.25c0.524-0.397,0.314-1.621,0.405-2.219     c0.084-0.551,0.016-1.104,0.005-1.663c-0.021-1-0.054-2-0.048-3c0.004-0.458,0.02-0.916,0.025-1.375     c0.005-0.802-0.036-1.591-0.036-2.395c0-1.128-0.063-2.253-0.015-3.386c0.036-0.862-0.068-1.72-0.042-2.579     c0.028-0.887,0.102-1.774,0.067-2.662c-0.015-0.301-0.016-0.604-0.008-0.904C44.921,15.32,44.949,14.757,44.928,14.197z      M41.727,33.114c0,0.249-0.201,0.448-0.449,0.448H24.251c-0.246,0-0.447-0.2-0.447-0.448V8.919c0-0.248,0.201-0.448,0.447-0.448     h17.026c0.248,0,0.449,0.2,0.449,0.448V33.114z"/>
                </g>
            </g>
            <g>
                <path fill-rule="evenodd" clip-rule="evenodd" fill="#FFFFFF" d="M21.104,29.576c-0.006-1.913-0.039-3.854-0.08-5.747    c-0.046-2.18-0.026-4.362,0.048-6.541c0.055-1.625,0.059-3.225,0.039-4.852c-0.015-1.129-0.103-2.264-0.071-3.393    c0.02-0.691,0.067-1.489-0.029-2.171c-0.061-0.424-0.446-0.455-0.741-0.666c-0.435-0.311-0.893-0.574-1.413-0.711    c-0.097-0.164-0.268-0.161-0.423-0.195c-0.718-0.365-1.465-0.647-2.257-0.804c-0.207-0.07-0.411-0.139-0.618-0.209    c-0.598-0.186-1.191-0.397-1.824-0.431c-0.245-0.184-0.54-0.154-0.819-0.187c-0.634-0.212-1.292-0.284-1.951-0.353    c-0.271-0.111-0.555-0.114-0.837-0.095C9.338,2.993,8.515,3.039,7.715,2.92C7.307,2.859,7.2,3.023,7.214,3.41    c0.031,0.866,0.028,1.734,0.039,2.6c0,0.329,0.002,0.659,0.004,0.989C7.255,7.761,7.253,8.521,7.253,9.281    c0,0.33,0.002,0.661,0.004,0.991c-0.002,0.761-0.004,1.522-0.004,2.282c0,0.33,0.002,0.66,0.004,0.99    c-0.002,0.761-0.004,1.522-0.004,2.283c0,0.331,0.002,0.66,0.004,0.99c-0.002,0.761-0.004,1.521-0.004,2.283    c0,0.33,0.002,0.66,0.004,0.989c-0.002,0.762-0.004,1.522-0.004,2.283c0,0.276,0.002,0.551,0.004,0.827    c-0.002,0.814-0.004,1.631-0.004,2.446c0,0.33,0.002,0.66,0.004,0.99c-0.002,0.76-0.004,1.522-0.004,2.282    c0.002,0.417-0.082,0.871-0.016,1.283c0.058,0.368,0.354,0.405,0.702,0.376c0.444-0.037,0.899,0.036,1.347,0.059    c0.279,0.023,0.561,0.045,0.84,0.069c0.758,0.091,1.514,0.183,2.271,0.274c0.224,0.023,0.449,0.046,0.672,0.07    c0.813,0.084,1.591,0.329,2.393,0.47c0.382,0.068,0.749,0.111,1.136,0.204c0.683,0.165,1.341,0.283,1.998,0.521    c0.84,0.305,1.675,0.619,2.511,0.927c0-0.952,0-1.903,0-2.855C21.106,30.068,21.106,29.822,21.104,29.576z"/>
            </g>
            <g>
                <path fill="#15C39A" d="M35.583,16.013c0,0.248-0.2,0.448-0.447,0.448H29.03c-0.247,0-0.447-0.201-0.447-0.448v-0.104    c0-0.248,0.2-0.448,0.447-0.448h6.105c0.247,0,0.447,0.201,0.447,0.448V16.013z"/>
                <path fill="#15C39A" d="M37.583,20.013c0,0.248-0.201,0.448-0.448,0.448H27.031c-0.247,0-0.448-0.201-0.448-0.448v-0.104    c0-0.248,0.201-0.448,0.448-0.448h10.104c0.247,0,0.448,0.201,0.448,0.448V20.013z"/>
                <path fill="#15C39A" d="M37.583,23.012c0,0.248-0.201,0.449-0.448,0.449H27.031c-0.247,0-0.448-0.201-0.448-0.449V22.91    c0-0.248,0.201-0.449,0.448-0.449h10.104c0.247,0,0.448,0.201,0.448,0.449V23.012z"/>
                <path fill="#15C39A" d="M37.583,27.013c0,0.247-0.201,0.448-0.448,0.448H27.031c-0.247,0-0.448-0.201-0.448-0.448v-0.104    c0-0.247,0.201-0.448,0.448-0.448h10.104c0.247,0,0.448,0.201,0.448,0.448V27.013z"/>
            </g>
        </g>
    </svg>

    <svg x="0px" y="60px" width="36.423px" height="36.445px" viewBox="0 0 36.423 36.445" enable-background="new 0 0 36.423 36.445" xml:space="preserve">
        <g>
            <g>
                <g>
                    <g>
                        <path fill="#15C39A" d="M35.797,11.196l-3.014-3.014l2.266-2.265c0.2-0.2,0.313-0.471,0.313-0.755s-0.113-0.555-0.313-0.755      l-3.033-3.033c-0.4-0.4-1.109-0.4-1.51,0L28.241,3.64l-3.014-3.014c-0.834-0.834-2.186-0.834-3.02,0s-0.834,2.186,0,3.02      l10.569,10.57c0.834,0.834,2.187,0.834,3.02,0C36.631,13.382,36.631,12.03,35.797,11.196z"/>
                    </g>
                </g>
            </g>
            <g>
                <g>
                    <g>
                        <path fill="#15C39A" d="M14.216,32.8l-10.57-10.57c-0.834-0.833-2.186-0.833-3.02,0c-0.834,0.834-0.834,2.187,0,3.021      l3.014,3.014l-2.261,2.26c-0.2,0.2-0.313,0.471-0.313,0.755s0.112,0.555,0.313,0.755l3.033,3.032      c0.208,0.208,0.481,0.313,0.755,0.313s0.546-0.104,0.755-0.313l2.26-2.26l3.014,3.014c0.834,0.834,2.187,0.834,3.021,0      S15.05,33.634,14.216,32.8z"/>
                    </g>
                </g>
            </g>
            <g>
                <g>
                    <g>
                        <polygon fill="#15C39A" points="19.188,12.706 12.705,19.21 17.235,23.74 23.718,17.235     "/>
                    </g>
                </g>
            </g>
            <g>
                <g>
                    <g>
                        <path fill="#15C39A" d="M32.777,17.235L19.188,3.646c-0.834-0.834-2.186-0.834-3.02,0s-0.834,2.186,0,3.02l13.59,13.59      c0.834,0.833,2.186,0.833,3.02,0C33.611,19.422,33.611,18.069,32.777,17.235z"/>
                    </g>
                </g>
            </g>
            <g>
                <g>
                    <g>
                        <path fill="#15C39A" d="M20.256,29.78L6.666,16.19c-0.834-0.834-2.187-0.834-3.021,0s-0.834,2.186,0,3.02l13.59,13.59      c0.834,0.834,2.187,0.834,3.021,0S21.09,30.614,20.256,29.78z"/>
                    </g>
                </g>
            </g>
        </g>
    </svg>

    <svg x="0px" y="100px" width="10px" height="13.123px" viewBox="0 0 10 13.123" enable-background="new 0 0 10 13.123" xml:space="preserve">
        <path fill="#AFAFAF" d="M10,11.739V7.272c0-0.667-0.473-1.223-1.1-1.354V3.901C8.9,1.75,7.15,0,5,0C2.848,0,1.098,1.75,1.098,3.901  v2.016C0.471,6.049,0,6.605,0,7.272v4.467c0,0.764,0.619,1.384,1.383,1.384h7.232C9.381,13.123,10,12.502,10,11.739L10,11.739z   M5.609,9.982v1.361H4.389V9.982c-0.367-0.211-0.613-0.606-0.613-1.06c0-0.676,0.549-1.224,1.225-1.224s1.223,0.547,1.223,1.224  C6.223,9.376,5.976,9.771,5.609,9.982z M6.865,5.615H3.133V3.628c0-1.029,0.838-1.866,1.867-1.866c1.027,0,1.865,0.837,1.865,1.866  V5.615z"/>
    </svg>

    <svg x="0px" y="120px" width="240.517px" height="115.531px" viewBox="0 0 240.517 115.531" enable-background="new 0 0 240.517 115.531" xml:space="preserve">
        <g>
            <path fill="#FFFFFF" d="M207.517,0H53.834c-18.225,0-33,14.774-33,33v44.286C16.017,107.994,0,115.531,0,115.531   s18.408-0.809,31.9-8.353c5.831,5.193,13.512,8.353,21.934,8.353h9.667h144.016c18.226,0,33-14.773,33-33V33   C240.517,14.774,225.742,0,207.517,0z"/>
        </g>
    </svg>

    <svg x="0px" y="240px" width="25px" height="25px" viewBox="0 0 25 25" enable-background="new 0 0 25 25" xml:space="preserve">
        <g>
            <g>
                <circle cx="12.5" cy="12.5" r="12.5"/>
                <path fill="#FFFFFF" d="M13.814,12.526l3.75-3.753C17.74,8.6,17.84,8.367,17.84,8.119s-0.1-0.48-0.275-0.654    c-0.178-0.177-0.41-0.274-0.654-0.274c-0.25,0-0.482,0.098-0.658,0.274l-3.75,3.753l-3.75-3.753    C8.575,7.288,8.342,7.19,8.095,7.19c-0.249,0-0.482,0.098-0.661,0.274C7.256,7.639,7.163,7.871,7.163,8.119S7.262,8.6,7.434,8.773    l3.758,3.753l-3.758,3.757c-0.172,0.176-0.271,0.408-0.271,0.656c0,0.244,0.099,0.479,0.271,0.656    c0.179,0.175,0.412,0.271,0.661,0.271c0.247,0,0.479-0.096,0.65-0.271l3.757-3.755l3.75,3.755    c0.176,0.175,0.408,0.271,0.658,0.271c0.244,0,0.477-0.096,0.654-0.271c0.176-0.177,0.275-0.412,0.275-0.656    c0-0.248-0.1-0.48-0.275-0.656L13.814,12.526z"/>
            </g>
        </g>
    </svg>

    <svg x="0px" y="270px" width="20px" height="24.754px" viewBox="0 0 20 24.754" enable-background="new 0 0 20 24.754" xml:space="preserve">
        <g>
            <circle fill="#9E190E" cx="10" cy="14.752" r="10"/>
            <path fill="#E03624" d="M10.105,3.021c0.65,0,1.287,0.055,1.906,0.162v-1.5H8.199v1.5C8.818,3.076,9.455,3.021,10.105,3.021z"/>
            <circle fill="#E03624" cx="10" cy="14.209" r="10"/>
            <circle fill="#FFFFFF" cx="10" cy="14.209" r="7.971"/>
            <path fill="#DADADA" d="M10,6.771c4.316,0,7.828,3.432,7.965,7.715c0.002-0.092,0.006-0.184,0.006-0.277   c0-4.402-3.57-7.971-7.971-7.971c-4.402,0-7.971,3.568-7.971,7.971c0,0.094,0.004,0.186,0.008,0.277   C2.172,10.203,5.684,6.771,10,6.771z"/>
            <path fill="#454545" d="M13.264,17.125l-2.73-2.73V8.596c0-0.291-0.236-0.525-0.525-0.525S9.482,8.305,9.482,8.596v4.748v1.486   l1.051,1.049l1.988,1.989c0.205,0.204,0.537,0.204,0.742,0C13.469,17.662,13.469,17.33,13.264,17.125z"/>
            <rect x="8.199" y="1.993" opacity="0.2" width="3.813" height="0.384"/>
            
                <rect x="16.838" y="4.211" transform="matrix(0.7075 0.7067 -0.7067 0.7075 8.9615 -11.3403)" fill="#E03624" width="2.683" height="1.889"/>
            <path fill="#E03624" d="M13.447,0.991c0,0.546-0.441,0.989-0.988,0.989H7.754c-0.547,0-0.99-0.443-0.99-0.989l0,0   C6.764,0.443,7.207,0,7.754,0h4.705C13.006,0,13.447,0.443,13.447,0.991L13.447,0.991z"/>
        </g>
    </svg>

    <svg x="0px" y="300px" width="20.5px" height="16.63px" viewBox="0 0 20.5 16.63" enable-background="new 0 0 20.5 16.63" xml:space="preserve">
        <g>
            <path fill="#7AC60C" stroke="#FFFFFF" stroke-width="0.5" stroke-linejoin="round" stroke-miterlimit="10" d="M18.025,0.25h-5.482   c-0.877,0-1.602,0.252-2.131,0.707V16.38c0.307-0.093,0.51-0.416,0.51-0.416c0.533-0.749,1.803-0.9,2.346-0.932h4.758   c1.227,0,2.225-0.998,2.225-2.226v-0.397V2.874V2.477C20.25,1.248,19.252,0.25,18.025,0.25z"/>
            <path fill="#7AC60C" stroke="#FFFFFF" stroke-width="0.5" stroke-linejoin="round" stroke-miterlimit="10" d="M10.088,0.957   C9.557,0.502,8.834,0.25,7.957,0.25h-5.48c-1.229,0-2.227,0.998-2.227,2.227v0.397v9.535v0.397c0,1.228,0.998,2.226,2.227,2.226   h4.756c0.543,0.031,1.813,0.183,2.346,0.932c0,0,0.203,0.322,0.51,0.416V0.957z"/>
        </g>
    </svg>

    <svg x="0px" y="320px" width="20.5px" height="16.718px" viewBox="0 0 20.5 16.718" enable-background="new 0 0 20.5 16.718" xml:space="preserve">
        <g>
            <path fill="#E43439" stroke="#FFFFFF" stroke-width="0.5" stroke-miterlimit="10" d="M18.026,0.25h-5.482   c-0.877,0-1.602,0.252-2.131,0.707V16.38c0.307-0.093,0.51-0.416,0.51-0.416c0.533-0.749,1.803-0.9,2.346-0.932h4.758   c1.227,0,2.225-0.998,2.225-2.226v-0.397V2.874V2.477C20.25,1.248,19.252,0.25,18.026,0.25z"/>
            <path fill="#E43439" stroke="#FFFFFF" stroke-width="0.5" stroke-miterlimit="10" d="M10.088,0.957   C9.557,0.502,8.834,0.25,7.958,0.25h-5.48c-1.229,0-2.227,0.998-2.227,2.227v0.397v9.535v0.397c0,1.228,0.998,2.226,2.227,2.226   h4.756c0.543,0.031,1.813,0.183,2.346,0.932c0,0,0.203,0.322,0.51,0.416V0.957z"/>
        </g>
    </svg>

    <svg x="0px" y="340px" width="24.571px" height="24.572px" viewBox="0 0 24.571 24.572" enable-background="new 0 0 24.571 24.572" xml:space="preserve">
        <g>
            <circle fill="#FFFFFF" cx="11.79" cy="12.877" r="8.925"/>
            <path fill="#FFB722" d="M12.285,0L12.285,0C5.5,0,0,5.5,0,12.286c0,6.786,5.501,12.286,12.285,12.286   c6.785,0,12.286-5.5,12.286-12.286V0H12.285z M13.715,16.275H11.79v-3.397c0-0.176,0.002-0.372,0.008-0.588   c0.006-0.216,0.029-0.744,0.072-1.585h-0.048l-1.563,5.57H8.265L6.68,10.694H6.632c0.074,0.95,0.111,1.688,0.111,2.216v3.365H4.888   v-7.75h2.788l1.617,5.502h0.042l1.586-5.502h2.794V16.275z M19.985,10.206h-2.507v1.219h2.322v1.68h-2.322v1.464h2.507v1.706   h-4.601v-7.75h4.601V10.206z"/>
        </g>
    </svg>

    <svg x="0px" y="370px" width="24.571px" height="24.572px" viewBox="0 0 24.571 24.572" enable-background="new 0 0 24.571 24.572" xml:space="preserve">
        <g>
            <circle fill="#FFFFFF" cx="11.79" cy="12.877" r="8.925"/>
            <path fill="#bbbbbc" d="M12.285,0L12.285,0C5.5,0,0,5.5,0,12.286c0,6.786,5.501,12.286,12.285,12.286   c6.785,0,12.286-5.5,12.286-12.286V0H12.285z M13.715,16.275H11.79v-3.397c0-0.176,0.002-0.372,0.008-0.588   c0.006-0.216,0.029-0.744,0.072-1.585h-0.048l-1.563,5.57H8.265L6.68,10.694H6.632c0.074,0.95,0.111,1.688,0.111,2.216v3.365H4.888   v-7.75h2.788l1.617,5.502h0.042l1.586-5.502h2.794V16.275z M19.985,10.206h-2.507v1.219h2.322v1.68h-2.322v1.464h2.507v1.706   h-4.601v-7.75h4.601V10.206z"/>
        </g>
    </svg>

    <svg x="0px" y="400px" width="30px" height="30px" viewBox="0 0 30 30" enable-background="new 0 0 30 30" xml:space="preserve">
        <g>
            <g>
                <path fill="#00BCEF" d="M30,15c0,8.286-6.716,15-15,15S0,23.286,0,15C0,6.719,6.716,0,15,0S30,6.719,30,15z"/>
                <g>
                    <path fill-rule="evenodd" clip-rule="evenodd" fill="#FFFFFF" d="M6.888,12.188c0.605-0.518,1.346-0.351,2.008-0.283     c0.963,0.093,1.597-0.247,2.178-0.981c0.786-1.001,1.666-1.926,2.518-2.871c0.256-0.286,0.521-0.635,0.984-0.452     c0.455,0.181,0.424,0.603,0.424,0.994C15,12.832,15,17.07,15,21.311c0,0.423,0.026,0.884-0.431,1.082     c-0.49,0.212-0.764-0.21-1.031-0.504c-0.977-1.083-1.949-2.162-2.885-3.279c-0.318-0.377-0.645-0.533-1.132-0.501     c-0.543,0.042-1.093-0.015-1.637,0.017c-0.388,0.022-0.703-0.092-0.997-0.317C6.888,15.933,6.888,14.06,6.888,12.188z"/>
                    <path fill-rule="evenodd" clip-rule="evenodd" fill="#FFFFFF" d="M23.112,16.089c-0.379,1.206-0.789,2.388-1.654,3.364     c-0.561,0.627-1.201,1.14-1.924,1.558c-0.385,0.227-0.78,0.4-1.066-0.107c-0.271-0.483,0.016-0.731,0.433-0.969     c1.943-1.108,2.975-2.798,2.946-5.034c-0.023-2.007-0.951-3.572-2.644-4.666c-0.425-0.274-1.085-0.513-0.693-1.152     c0.392-0.63,0.927-0.166,1.347,0.1c1.703,1.086,2.781,2.607,3.135,4.617c0.016,0.093,0.08,0.176,0.121,0.261     C23.112,14.736,23.112,15.413,23.112,16.089z"/>
                    <path fill-rule="evenodd" clip-rule="evenodd" fill="#FFFFFF" d="M19.993,15.195c-0.067,1.375-0.785,2.568-2.086,3.423     c-0.344,0.229-0.676,0.31-0.94-0.085c-0.248-0.366-0.161-0.686,0.22-0.915c2.033-1.231,2.092-3.932,0.047-5.206     c-0.357-0.222-0.511-0.575-0.271-0.925c0.271-0.396,0.659-0.3,1.032-0.076C19.157,12.119,19.994,13.618,19.993,15.195z"/>
                </g>
            </g>
        </g>
    </svg>

    <svg x="0px" y="440px" width="50px" height="50px"  viewBox="0 0 50 50" style="enable-background:new 0 0 50 50;" xml:space="preserve">
        <style type="text/css">
            .st0_440{fill:#E03624;}
            .st1_440{fill-rule:evenodd;clip-rule:evenodd;fill:#FFFFFF;}
        </style>
        <g>
            <g>
                <path class="st0_440" d="M50,25c0,13.8-11.2,25-25,25C11.2,50,0,38.8,0,25C0,11.2,11.2,0,25,0C38.8,0,50,11.2,50,25z"/>
                <g>
                    <path class="st1_440" d="M11.5,20.3c1-0.9,2.2-0.6,3.3-0.5c1.6,0.2,2.7-0.4,3.6-1.6c1.3-1.7,2.8-3.2,4.2-4.8c0.4-0.5,0.9-1.1,1.6-0.8     c0.8,0.3,0.7,1,0.7,1.7c0,7.1,0,14.1,0,21.2c0,0.7,0,1.5-0.7,1.8c-0.8,0.4-1.3-0.3-1.7-0.8c-1.6-1.8-3.3-3.6-4.8-5.5     c-0.5-0.6-1.1-0.9-1.9-0.8c-0.9,0.1-1.8,0-2.7,0c-0.6,0-1.2-0.2-1.7-0.5C11.5,26.6,11.5,23.4,11.5,20.3z"/>
                    <path class="st1_440" d="M38.5,26.8c-0.6,2-1.3,4-2.8,5.6c-0.9,1-2,1.9-3.2,2.6c-0.6,0.4-1.3,0.7-1.8-0.2c-0.5-0.8,0-1.2,0.7-1.6     c3.2-1.8,5-4.7,4.9-8.4c0-3.3-1.6-6-4.4-7.8c-0.7-0.5-1.8-0.9-1.2-1.9c0.7-1,1.5-0.3,2.2,0.2c2.8,1.8,4.6,4.3,5.2,7.7     c0,0.2,0.1,0.3,0.2,0.4C38.5,24.6,38.5,25.7,38.5,26.8z"/>
                    <path class="st1_440" d="M33.3,25.3c-0.1,2.3-1.3,4.3-3.5,5.7c-0.6,0.4-1.1,0.5-1.6-0.1c-0.4-0.6-0.3-1.1,0.4-1.5     c3.4-2.1,3.5-6.6,0.1-8.7c-0.6-0.4-0.9-1-0.4-1.5c0.4-0.7,1.1-0.5,1.7-0.1C31.9,20.2,33.3,22.7,33.3,25.3z"/>
                </g>
            </g>
        </g>
    </svg>

    <svg x="0px" y="500px" width="30.18px" height="30.307px" viewBox="0 0 30.18 30.307" enable-background="new 0 0 30.18 30.307" xml:space="preserve">
        <g>
            <g id="screen-rotation_1_">
                <path fill="#00BCEF" d="M20.71,3.156c4.167,1.895,7.071,5.936,7.577,10.734h1.893C29.423,6.062,22.983,0,15.028,0                     c-0.253,0-0.506,0-0.884,0l4.799,4.798L20.71,3.156z M12.754,2.146c-0.757-0.757-1.894-0.757-2.652,0l-8.082,8.082                     c-0.758,0.757-0.758,1.894,0,2.652l15.153,15.153c0.758,0.758,1.894,0.758,2.652,0l8.082-8.082c0.758-0.757,0.758-1.895,0-2.651                     L12.754,2.146z M18.563,26.77L3.41,11.617l8.082-8.082l15.153,15.153L18.563,26.77z M9.345,27.149                     c-4.167-1.895-7.072-5.935-7.577-10.733H0c0.632,7.829,7.072,13.891,15.028,13.891c0.252,0,0.505,0,0.883,0l-4.797-4.799                     L9.345,27.149z"/>
            </g>
        </g>
    </svg>

    <svg x="0px" y="540px" width="20px" height="20px" viewBox="0 0 20 20" enable-background="new 0 0 20 20" xml:space="preserve">
        <g>
            <g>
                <path fill="#BBBBBC" d="M19.749,7.742c-0.025-0.066-0.059-0.126-0.102-0.184c-0.361-0.461-0.92-0.721-1.506-0.698h-0.104                     c-0.335-0.009-0.641-0.197-0.801-0.491c-0.014,0-0.025-0.01-0.027-0.024c0-0.002,0-0.002,0-0.004                     c-0.105-0.184-0.199-0.336-0.307-0.52c-0.012-0.002-0.02-0.012-0.021-0.024c-0.178-0.292-0.188-0.657-0.027-0.959                     c0.025-0.019,0.045-0.046,0.05-0.077c0.305-0.519,0.361-1.146,0.151-1.709c-0.02-0.068-0.055-0.132-0.1-0.184                     c-0.344-0.322-0.701-0.625-1.074-0.908c-0.051-0.025-0.105-0.05-0.18-0.079c-0.585-0.119-1.191,0.045-1.637,0.443                     c-0.029,0.008-0.057,0.025-0.074,0.049c-0.156,0.135-0.355,0.205-0.561,0.201c-0.124-0.003-0.248-0.029-0.361-0.078                     c-0.189-0.082-0.385-0.147-0.586-0.2c-0.32-0.114-0.555-0.392-0.613-0.725c-0.005-0.035-0.014-0.07-0.027-0.104                     c-0.075-0.598-0.438-1.12-0.972-1.398c-0.054-0.031-0.114-0.048-0.179-0.048c-0.457-0.027-0.918-0.027-1.377,0                     c-0.063,0.006-0.124,0.021-0.18,0.05C8.602,0.362,8.24,0.892,8.162,1.493C8.141,1.513,8.129,1.542,8.133,1.57                     C8.083,1.909,7.846,2.189,7.522,2.297c-0.176,0.05-0.382,0.128-0.586,0.2C6.817,2.525,6.698,2.542,6.577,2.546                     C6.372,2.545,6.174,2.474,6.013,2.348C5.99,2.318,5.963,2.318,5.94,2.293C5.497,1.892,4.887,1.729,4.303,1.85                     C4.235,1.852,4.17,1.88,4.124,1.929C3.737,2.194,3.376,2.498,3.049,2.834C3.005,2.892,2.971,2.952,2.948,3.019                     C2.727,3.58,2.784,4.213,3.1,4.728c0.018,0.025,0.033,0.051,0.049,0.078c0.16,0.303,0.15,0.667-0.029,0.96                     C3.106,5.764,3.094,5.774,3.092,5.789c0,0,0,0.002,0,0.004c-0.109,0.166-0.207,0.339-0.291,0.52                     c-0.014-0.001-0.027,0.01-0.027,0.024c0,0.001,0,0.003,0,0.004C2.622,6.644,2.311,6.836,1.973,6.833H1.868                     C1.284,6.817,0.726,7.077,0.363,7.534C0.315,7.587,0.28,7.649,0.258,7.718C0.137,8.194,0.051,8.681,0,9.169                     c-0.002,0.067,0.006,0.136,0.027,0.2c0.189,0.55,0.623,0.982,1.173,1.173c0.034,0.006,0.069,0.016,0.103,0.028                     c0.316,0.11,0.545,0.391,0.586,0.726v0.028c0.02,0.203,0.054,0.402,0.101,0.6v0.029c0.06,0.334-0.058,0.674-0.308,0.905                     c-0.029,0.008-0.055,0.025-0.074,0.05c-0.447,0.36-0.709,0.903-0.715,1.479c0.008,0.069,0.025,0.136,0.051,0.2                     c0.226,0.458,0.482,0.9,0.768,1.323c0.023,0.075,0.08,0.132,0.154,0.156c0.492,0.275,1.08,0.312,1.602,0.102                     c0.037,0.007,0.074-0.003,0.102-0.028c0.1-0.033,0.204-0.051,0.309-0.049c0.111-0.001,0.223,0.019,0.328,0.057                     c0.111,0.043,0.215,0.103,0.307,0.176l0.461,0.399l0.029,0.028c0.256,0.213,0.383,0.546,0.33,0.877                     c-0.018,0.031-0.028,0.066-0.027,0.103C5.19,18.283,5.321,18.86,5.667,19.31c0.048,0.056,0.109,0.099,0.18,0.128                     c0.465,0.23,0.955,0.412,1.461,0.542c0.073,0.027,0.154,0.027,0.229,0c0.547-0.112,1.015-0.465,1.274-0.96                     c0.02-0.024,0.037-0.05,0.051-0.079c0.153-0.306,0.479-0.49,0.82-0.463h0.64c0.339-0.008,0.654,0.169,0.82,0.463                     c0.021,0.025,0.036,0.051,0.05,0.079c0.26,0.495,0.729,0.848,1.277,0.96h0.102c0.027,0,0.074,0,0.041-0.055                     c0.496-0.153,0.982-0.336,1.457-0.544c0.07-0.028,0.131-0.072,0.182-0.128c0.273-0.327,0.421-0.739,0.417-1.164                     c-0.001-0.123-0.013-0.244-0.036-0.364c0.004-0.054-0.006-0.107-0.027-0.156c-0.043-0.328,0.094-0.654,0.359-0.853                     c-0.01-0.012-0.01-0.029,0-0.042c0.011-0.009,0.029-0.009,0.041,0c0.162-0.119,0.316-0.253,0.459-0.398h0.027                     c0.168-0.153,0.387-0.236,0.613-0.234c0.074,0,0.15,0.009,0.221,0.028c0.031,0.006,0.061,0.016,0.086,0.027                     c0.037,0.007,0.07,0.017,0.104,0.028c0.109,0.041,0.221,0.072,0.336,0.095c0.117,0.023,0.236,0.035,0.355,0.036                     c0.322,0.003,0.641-0.079,0.924-0.234l0.154-0.156c0.3-0.414,0.557-0.857,0.766-1.324c0.033-0.063,0.049-0.13,0.052-0.2                     c-0.012-0.573-0.271-1.113-0.716-1.479c-0.023-0.024-0.049-0.049-0.072-0.077c-0.234-0.196-0.352-0.498-0.309-0.799v-0.031                     c0.047-0.196,0.081-0.397,0.102-0.6v-0.021c0.1-0.592,0.535-0.74,0.588-0.74c0.041,0.008,0.083-0.004,0.111-0.036                     c0.547-0.188,0.977-0.617,1.166-1.164c0.021-0.064,0.031-0.132,0.027-0.2C19.956,8.705,19.871,8.219,19.749,7.742z M10.002,14.214                     c-2.268,0.019-4.123-1.803-4.141-4.068c-0.02-2.268,1.805-4.119,4.074-4.138c2.268-0.02,4.12,1.803,4.14,4.07                     c0,0.007,0,0.014,0,0.021c0.021,2.251-1.79,4.095-4.042,4.115C10.022,14.214,10.012,14.214,10.002,14.214z"/>
            </g>
        </g>
    </svg>

    <svg x="0px" y="570px" width="20px" height="20px" viewBox="0 0 20 20" enable-background="new 0 0 20 20" xml:space="preserve">
        <g>
            <g>
                <path fill="#E03624" d="M19.749,7.742c-0.025-0.066-0.059-0.126-0.102-0.184c-0.361-0.461-0.92-0.721-1.506-0.698h-0.104                     c-0.335-0.009-0.641-0.197-0.801-0.491c-0.014,0-0.025-0.01-0.027-0.024c0-0.002,0-0.002,0-0.004                     c-0.105-0.184-0.199-0.336-0.307-0.52c-0.012-0.002-0.02-0.012-0.021-0.024c-0.178-0.292-0.188-0.657-0.027-0.959                     c0.025-0.019,0.045-0.046,0.05-0.077c0.305-0.519,0.361-1.146,0.151-1.709c-0.02-0.068-0.055-0.132-0.1-0.184                     c-0.344-0.322-0.701-0.625-1.074-0.908c-0.051-0.025-0.105-0.05-0.18-0.079c-0.585-0.119-1.191,0.045-1.637,0.443                     c-0.029,0.008-0.057,0.025-0.074,0.049c-0.156,0.135-0.355,0.205-0.561,0.201c-0.124-0.003-0.248-0.029-0.361-0.078                     c-0.189-0.082-0.385-0.147-0.586-0.2c-0.32-0.114-0.555-0.392-0.613-0.725c-0.005-0.035-0.014-0.07-0.027-0.104                     c-0.075-0.598-0.438-1.12-0.972-1.398c-0.054-0.031-0.114-0.048-0.179-0.048c-0.457-0.027-0.918-0.027-1.377,0                     c-0.063,0.006-0.124,0.021-0.18,0.05C8.602,0.362,8.24,0.892,8.162,1.493C8.141,1.513,8.129,1.542,8.133,1.57                     C8.083,1.909,7.846,2.189,7.522,2.297c-0.176,0.05-0.382,0.128-0.586,0.2C6.817,2.525,6.698,2.542,6.577,2.546                     C6.372,2.545,6.174,2.474,6.013,2.348C5.99,2.318,5.963,2.318,5.94,2.293C5.497,1.892,4.887,1.729,4.303,1.85                     C4.235,1.852,4.17,1.88,4.124,1.929C3.737,2.194,3.376,2.498,3.049,2.834C3.005,2.892,2.971,2.952,2.948,3.019                     C2.727,3.58,2.784,4.213,3.1,4.728c0.018,0.025,0.033,0.051,0.049,0.078c0.16,0.303,0.15,0.667-0.029,0.96                     C3.106,5.764,3.094,5.774,3.092,5.789c0,0,0,0.002,0,0.004c-0.109,0.166-0.207,0.339-0.291,0.52                     c-0.014-0.001-0.027,0.01-0.027,0.024c0,0.001,0,0.003,0,0.004C2.622,6.644,2.311,6.836,1.973,6.833H1.868                     C1.284,6.817,0.726,7.077,0.363,7.534C0.315,7.587,0.28,7.649,0.258,7.718C0.137,8.194,0.051,8.681,0,9.169                     c-0.002,0.067,0.006,0.136,0.027,0.2c0.189,0.55,0.623,0.982,1.173,1.173c0.034,0.006,0.069,0.016,0.103,0.028                     c0.316,0.11,0.545,0.391,0.586,0.726v0.028c0.02,0.203,0.054,0.402,0.101,0.6v0.029c0.06,0.334-0.058,0.674-0.308,0.905                     c-0.029,0.008-0.055,0.025-0.074,0.05c-0.447,0.36-0.709,0.903-0.715,1.479c0.008,0.069,0.025,0.136,0.051,0.2                     c0.226,0.458,0.482,0.9,0.768,1.323c0.023,0.075,0.08,0.132,0.154,0.156c0.492,0.275,1.08,0.312,1.602,0.102                     c0.037,0.007,0.074-0.003,0.102-0.028c0.1-0.033,0.204-0.051,0.309-0.049c0.111-0.001,0.223,0.019,0.328,0.057                     c0.111,0.043,0.215,0.103,0.307,0.176l0.461,0.399l0.029,0.028c0.256,0.213,0.383,0.546,0.33,0.877                     c-0.018,0.031-0.028,0.066-0.027,0.103C5.19,18.283,5.321,18.86,5.667,19.31c0.048,0.056,0.109,0.099,0.18,0.128                     c0.465,0.23,0.955,0.412,1.461,0.542c0.073,0.027,0.154,0.027,0.229,0c0.547-0.112,1.015-0.465,1.274-0.96                     c0.02-0.024,0.037-0.05,0.051-0.079c0.153-0.306,0.479-0.49,0.82-0.463h0.64c0.339-0.008,0.654,0.169,0.82,0.463                     c0.021,0.025,0.036,0.051,0.05,0.079c0.26,0.495,0.729,0.848,1.277,0.96h0.102c0.027,0,0.074,0,0.041-0.055                     c0.496-0.153,0.982-0.336,1.457-0.544c0.07-0.028,0.131-0.072,0.182-0.128c0.273-0.327,0.421-0.739,0.417-1.164                     c-0.001-0.123-0.013-0.244-0.036-0.364c0.004-0.054-0.006-0.107-0.027-0.156c-0.043-0.328,0.094-0.654,0.359-0.853                     c-0.01-0.012-0.01-0.029,0-0.042c0.011-0.009,0.029-0.009,0.041,0c0.162-0.119,0.316-0.253,0.459-0.398h0.027                     c0.168-0.153,0.387-0.236,0.613-0.234c0.074,0,0.15,0.009,0.221,0.028c0.031,0.006,0.061,0.016,0.086,0.027                     c0.037,0.007,0.07,0.017,0.104,0.028c0.109,0.041,0.221,0.072,0.336,0.095c0.117,0.023,0.236,0.035,0.355,0.036                     c0.322,0.003,0.641-0.079,0.924-0.234l0.154-0.156c0.3-0.414,0.557-0.857,0.766-1.324c0.033-0.063,0.049-0.13,0.052-0.2                     c-0.012-0.573-0.271-1.113-0.716-1.479c-0.023-0.024-0.049-0.049-0.072-0.077c-0.234-0.196-0.352-0.498-0.309-0.799v-0.031                     c0.047-0.196,0.081-0.397,0.102-0.6v-0.021c0.1-0.592,0.535-0.74,0.588-0.74c0.041,0.008,0.083-0.004,0.111-0.036                     c0.547-0.188,0.977-0.617,1.166-1.164c0.021-0.064,0.031-0.132,0.027-0.2C19.956,8.705,19.871,8.219,19.749,7.742z M10.002,14.214                     c-2.268,0.019-4.123-1.803-4.141-4.068c-0.02-2.268,1.805-4.119,4.074-4.138c2.268-0.02,4.12,1.803,4.14,4.07                     c0,0.007,0,0.014,0,0.021c0.021,2.251-1.79,4.095-4.042,4.115C10.022,14.214,10.012,14.214,10.002,14.214z"/>
            </g>
        </g>
    </svg>

    <svg x="0px" y="600px" width="20px" height="20px" viewBox="0 0 20 20" enable-background="new 0 0 20 20" xml:space="preserve">
        <g>
            <g>
                <g>
                    <path fill="#BBBBBC" d="M10,20C4.487,20,0,15.514,0,10C0,4.486,4.487,0,10,0s10,4.486,10,10C20,15.514,15.514,20,10,20z                          M10,1.026c-4.949,0-8.975,4.026-8.975,8.974S5.051,18.974,10,18.974c4.947,0,8.973-4.026,8.973-8.974S14.948,1.026,10,1.026z"/>
                </g>
            </g>
            <g>
                <g>
                    <path fill="#BBBBBC" d="M12.649,13.215c0-0.186-0.145-0.33-0.332-0.33h-0.992V7.586c0-0.186-0.145-0.331-0.332-0.331H7.682                         C7.495,7.255,7.35,7.4,7.35,7.586v1.655c0,0.187,0.145,0.332,0.332,0.332h0.993v3.312H7.682c-0.188,0-0.332,0.145-0.332,0.33                         v1.656c0,0.187,0.145,0.332,0.332,0.332h4.635c0.188,0,0.332-0.145,0.332-0.332V13.215z"/>
                </g>
                <g>
                    <path fill="#BBBBBC" d="M11.325,3.942c0-0.185-0.145-0.33-0.332-0.33H9.005c-0.187,0-0.33,0.145-0.33,0.33v1.657                         c0,0.186,0.144,0.331,0.33,0.331h1.987c0.188,0,0.332-0.145,0.332-0.331V3.942z"/>
                </g>
            </g>
        </g>
    </svg>

    <svg x="0px" y="630px" width="20px" height="20px" viewBox="0 0 20 20" enable-background="new 0 0 20 20" xml:space="preserve">
        <g>
            <g>
                <g>
                    <path fill="#E03624" d="M10,20C4.487,20,0,15.514,0,10C0,4.486,4.487,0,10,0s10,4.486,10,10C20,15.514,15.514,20,10,20z                          M10,1.026c-4.949,0-8.975,4.026-8.975,8.974S5.051,18.974,10,18.974c4.947,0,8.973-4.026,8.973-8.974S14.948,1.026,10,1.026z"/>
                </g>
            </g>
            <g>
                <g>
                    <path fill="#E03624" d="M12.649,13.215c0-0.186-0.145-0.33-0.332-0.33h-0.992V7.586c0-0.186-0.145-0.331-0.332-0.331H7.682                         C7.495,7.255,7.35,7.4,7.35,7.586v1.655c0,0.187,0.145,0.332,0.332,0.332h0.993v3.312H7.682c-0.188,0-0.332,0.145-0.332,0.33                         v1.656c0,0.187,0.145,0.332,0.332,0.332h4.635c0.188,0,0.332-0.145,0.332-0.332V13.215z"/>
                </g>
                <g>
                    <path fill="#E03624" d="M11.325,3.942c0-0.185-0.145-0.33-0.332-0.33H9.005c-0.187,0-0.33,0.145-0.33,0.33v1.657                         c0,0.186,0.144,0.331,0.33,0.331h1.987c0.188,0,0.332-0.145,0.332-0.331V3.942z"/>
                </g>
            </g>
        </g>
    </svg>

    <svg x="0px" y="660px" width="20px" height="20.075px" viewBox="0 0 20 20.075" enable-background="new 0 0 20 20.075" xml:space="preserve">
        <g transform="matrix(0, -1, 1, 0, 0.152622, 100)">
            <g>
                <path fill="#BBBBBC" d="M90.629,0.462c0-0.369,0.301-0.641,0.668-0.602c0,0-0.217-0.029,0.006,0C96.212,0.516,100,4.72,100,9.809    c0,5.544-4.494,10.039-10.038,10.039c-5.544,0-10.037-4.494-10.037-10.039c0-5.088,3.783-9.291,8.691-9.947    c0.225-0.031,0.012-0.002,0.012-0.002c0.367-0.037,0.666,0.232,0.666,0.602v11.428c0,0.185-0.105,0.229-0.234,0.1L86.429,9.35    c-0.629-0.631-1.574,0.316-0.943,0.947l3.9,3.951c0.325,0.328,0.85,0.328,1.176-0.004l3.876-3.947    c0.63-0.631-0.314-1.578-0.944-0.947l-2.63,2.639c-0.13,0.129-0.235,0.086-0.235-0.1V0.462z"/>
            </g>
        </g>
    </svg>

    <svg x="0px" y="690px" width="20px" height="20.075px" viewBox="0 0 20 20.075" enable-background="new 0 0 20 20.075" xml:space="preserve">
        <g transform="matrix(0, -1, 1, 0, 0.152622, 100)">
            <g>
                <path fill="#E03624" d="M90.629,0.462c0-0.369,0.301-0.641,0.668-0.602c0,0-0.217-0.029,0.006,0C96.212,0.516,100,4.72,100,9.809    c0,5.544-4.494,10.039-10.038,10.039c-5.544,0-10.037-4.494-10.037-10.039c0-5.088,3.783-9.291,8.691-9.947    c0.225-0.031,0.012-0.002,0.012-0.002c0.367-0.037,0.666,0.232,0.666,0.602v11.428c0,0.185-0.105,0.229-0.234,0.1L86.429,9.35    c-0.629-0.631-1.574,0.316-0.943,0.947l3.9,3.951c0.325,0.328,0.85,0.328,1.176-0.004l3.876-3.947    c0.63-0.631-0.314-1.578-0.944-0.947l-2.63,2.639c-0.13,0.129-0.235,0.086-0.235-0.1V0.462z"/>
            </g>
        </g>
    </svg>

    <svg x="0px" y="720px" width="18.604px" height="20.506px" viewBox="0 0 18.604 20.506" enable-background="new 0 0 18.604 20.506" xml:space="preserve">
        <g>
            <g>
                <path fill="#BBBBBC" d="M3.969,7.153C3.682,7.141,3.311,7.169,2.857,7.238C2.408,7.307,1.973,7.464,1.551,7.709    C1.131,7.953,0.766,8.317,0.461,8.8C0.152,9.283,0,9.938,0,10.767c0,0.639,0.094,1.175,0.281,1.607    c0.189,0.434,0.443,0.779,0.77,1.036c0.328,0.257,0.703,0.433,1.131,0.527c0.426,0.095,0.879,0.123,1.355,0.084    c0.402-0.037,0.777-0.12,1.127-0.245c0.352-0.125,0.703-0.327,1.057-0.602c0.123,0.264,0.275,0.477,0.449,0.64    c0.178,0.163,0.391,0.245,0.639,0.245c0.127,0,0.264-0.038,0.406-0.113c0.145-0.076,0.279-0.176,0.402-0.302    c0.129-0.124,0.225-0.26,0.295-0.405c0.068-0.144,0.098-0.284,0.086-0.422l-0.02-0.038c-0.102-0.452-0.17-0.838-0.209-1.158    c-0.037-0.32-0.057-0.668-0.057-1.044c0-0.237,0-0.495,0-0.771c0-0.289,0.006-0.559,0.02-0.81c0.014-0.163,0.018-0.32,0.018-0.47    c0-0.163,0-0.314,0-0.452v-0.15c0-0.188-0.002-0.424-0.008-0.707C7.734,6.937,7.695,6.645,7.617,6.345    C7.545,6.043,7.428,5.749,7.271,5.46S6.893,4.914,6.604,4.688C6.314,4.462,5.947,4.283,5.502,4.152    C5.057,4.02,4.516,3.974,3.875,4.011c-0.439,0.025-0.852,0.09-1.242,0.198c-0.389,0.106-0.74,0.25-1.053,0.433    s-0.576,0.395-0.791,0.64C0.576,5.525,0.436,5.799,0.375,6.099c0.014,0.176,0.031,0.276,0.057,0.302    C0.496,6.538,0.57,6.689,0.656,6.853c0.09,0.162,0.209,0.244,0.359,0.244h0.018c0.076,0.013,0.184,0.017,0.32,0.01    s0.252-0.035,0.338-0.084c0.051-0.025,0.102-0.06,0.152-0.104c0.049-0.043,0.1-0.084,0.15-0.122    C2.143,6.67,2.348,6.531,2.604,6.382c0.258-0.151,0.67-0.245,1.236-0.283c0.35-0.013,0.635,0.019,0.855,0.093    c0.217,0.076,0.389,0.179,0.508,0.311C5.322,6.635,5.4,6.783,5.445,6.946c0.043,0.163,0.066,0.32,0.066,0.47    C5.338,7.352,5.127,7.3,4.883,7.257C4.637,7.213,4.334,7.179,3.969,7.153z M5.492,9.619C5.518,9.682,5.537,9.76,5.551,9.854    c0.012,0.094,0.018,0.198,0.018,0.31c0,0.201-0.023,0.417-0.076,0.65c-0.049,0.232-0.154,0.455-0.318,0.668    c-0.215,0.163-0.455,0.3-0.725,0.413c-0.271,0.114-0.58,0.17-0.932,0.17c-0.453,0-0.805-0.122-1.063-0.367    c-0.256-0.243-0.387-0.573-0.387-0.988c0-0.427,0.193-0.8,0.584-1.119c0.389-0.319,0.896-0.479,1.523-0.479    c0.264,0,0.506,0.05,0.725,0.149C5.121,9.361,5.318,9.481,5.492,9.619z"/>
                <path fill="#BBBBBC" d="M8.883,9.44c0.074,0.051,0.146,0.084,0.215,0.106C9.152,9.614,9.225,9.66,9.314,9.683    C9.4,9.705,9.49,9.711,9.582,9.698s0.186-0.042,0.277-0.089c0.09-0.046,0.162-0.105,0.219-0.178    c0.133,0.278,0.324,0.506,0.563,0.685c0.24,0.178,0.541,0.348,0.902,0.51c0.465,0.207,0.932,0.309,1.412,0.307    c0.479-0.002,0.936-0.093,1.369-0.273c0.434-0.181,0.83-0.446,1.189-0.796c0.357-0.349,0.641-0.764,0.857-1.244l0.158-0.353    c0.219-0.487,0.334-0.969,0.346-1.442c0.01-0.474-0.064-0.914-0.223-1.321c-0.158-0.408-0.396-0.768-0.713-1.079    c-0.318-0.31-0.691-0.541-1.125-0.691c-0.301-0.103-0.6-0.152-0.893-0.149c-0.295,0.005-0.547,0.025-0.748,0.066    c0.039-0.113,0.084-0.224,0.133-0.333c0.049-0.108,0.098-0.221,0.152-0.339l0.414-0.922c0.072-0.163,0.16-0.343,0.266-0.54    c0.105-0.198,0.193-0.356,0.27-0.474C14.451,0.975,14.5,0.9,14.561,0.818c0.014-0.081-0.004-0.17-0.053-0.268    s-0.102-0.17-0.156-0.217c-0.082-0.08-0.195-0.153-0.342-0.218c-0.145-0.063-0.301-0.103-0.469-0.113    c-0.17-0.01-0.338,0.021-0.51,0.098c-0.17,0.075-0.313,0.217-0.426,0.426c-0.07,0.11-0.184,0.311-0.328,0.603    c-0.148,0.292-0.314,0.634-0.5,1.022c-0.186,0.391-0.383,0.811-0.588,1.26c-0.209,0.451-0.41,0.892-0.604,1.326    c-0.082,0.182-0.184,0.398-0.309,0.652c-0.125,0.254-0.26,0.517-0.402,0.79C9.713,6.488,9.557,6.794,9.404,7.1    C9.25,7.406,9.121,7.676,9.016,7.912C8.967,8.021,8.928,8.114,8.896,8.193C8.867,8.272,8.84,8.35,8.816,8.426    c-0.1,0.194-0.15,0.358-0.162,0.489C8.645,9.047,8.662,9.155,8.705,9.24C8.748,9.323,8.807,9.391,8.883,9.44z M11.781,6.611    l0.037-0.083c0.094-0.207,0.195-0.396,0.301-0.564c0.109-0.168,0.227-0.333,0.354-0.495c0.305-0.145,0.602-0.243,0.889-0.293    s0.564-0.017,0.826,0.101c0.291,0.13,0.521,0.333,0.699,0.607c0.176,0.274,0.209,0.614,0.102,1.024    c0.014,0.039,0.016,0.1,0.01,0.182c-0.01,0.083-0.031,0.175-0.061,0.275c-0.027,0.103-0.066,0.207-0.115,0.314    c-0.051,0.109-0.094,0.209-0.133,0.299c-0.26,0.526-0.609,0.892-1.059,1.099c-0.445,0.207-0.898,0.209-1.359,0.002    c-0.236-0.107-0.418-0.266-0.541-0.481c-0.129-0.213-0.246-0.432-0.352-0.654l-0.008-0.019C11.436,7.51,11.574,7.072,11.781,6.611    z"/>
                <path fill="#BBBBBC" d="M15.082,14.099c-0.414,0.113-0.807,0.297-1.178,0.554s-0.691,0.578-0.961,0.965    c-0.27,0.386-0.457,0.786-0.563,1.199c-0.107,0.413-0.135,0.818-0.082,1.214c0.057,0.397,0.193,0.771,0.41,1.122    c0.217,0.351,0.52,0.651,0.91,0.901c0.242,0.156,0.508,0.272,0.797,0.349c0.289,0.075,0.568,0.109,0.84,0.101    c0.271-0.009,0.514-0.065,0.727-0.168c0.215-0.104,0.367-0.258,0.459-0.462c0.055-0.112,0.072-0.237,0.053-0.373    c-0.02-0.138-0.09-0.251-0.203-0.342c-0.063-0.048-0.125-0.077-0.189-0.089c-0.063-0.01-0.158-0.01-0.289-0.001    c-0.221,0.015-0.453,0.008-0.693-0.02c-0.244-0.03-0.443-0.095-0.598-0.192c-0.195-0.144-0.346-0.311-0.453-0.503    c-0.104-0.192-0.162-0.398-0.176-0.62c-0.018-0.222,0.016-0.45,0.096-0.687c0.078-0.236,0.207-0.467,0.385-0.694    c0.148-0.191,0.326-0.365,0.531-0.521c0.203-0.155,0.412-0.271,0.619-0.351c0.211-0.078,0.416-0.117,0.615-0.117    c0.199,0,0.373,0.059,0.523,0.177c0.139,0.107,0.229,0.244,0.27,0.409c0.045,0.166,0.066,0.344,0.07,0.535    c-0.055,0.113-0.049,0.227,0.014,0.342c0.064,0.117,0.139,0.207,0.223,0.271c0.025,0.022,0.088,0.042,0.182,0.061    c0.096,0.019,0.201,0.027,0.32,0.025c0.117-0.001,0.234-0.018,0.346-0.051c0.115-0.032,0.209-0.09,0.285-0.175    c0.135-0.139,0.209-0.321,0.227-0.543c0.021-0.222-0.014-0.455-0.098-0.7c-0.09-0.244-0.217-0.48-0.396-0.713    c-0.178-0.232-0.395-0.433-0.65-0.599c-0.344-0.225-0.723-0.36-1.135-0.405C15.91,13.952,15.496,13.986,15.082,14.099z"/>
            </g>
        </g>
    </svg>

    <svg x="0px" y="750px" width="18.604px" height="20.506px" viewBox="0 0 18.604 20.506" enable-background="new 0 0 18.604 20.506" xml:space="preserve">
        <g>
            <g>
                <path fill="#E03624" d="M3.969,7.153C3.682,7.141,3.311,7.169,2.857,7.238C2.408,7.307,1.973,7.464,1.551,7.709    C1.131,7.953,0.766,8.317,0.461,8.8C0.152,9.283,0,9.938,0,10.767c0,0.639,0.094,1.175,0.281,1.607    c0.189,0.434,0.443,0.779,0.77,1.036c0.328,0.257,0.703,0.433,1.131,0.527c0.426,0.095,0.879,0.123,1.355,0.084    c0.402-0.037,0.777-0.12,1.127-0.245c0.352-0.125,0.703-0.327,1.057-0.602c0.123,0.264,0.275,0.477,0.449,0.64    c0.178,0.163,0.391,0.245,0.639,0.245c0.127,0,0.264-0.038,0.406-0.113c0.145-0.076,0.279-0.176,0.402-0.302    c0.129-0.124,0.225-0.26,0.295-0.405c0.068-0.144,0.098-0.284,0.086-0.422l-0.02-0.038c-0.102-0.452-0.17-0.838-0.209-1.158    c-0.037-0.32-0.057-0.668-0.057-1.044c0-0.237,0-0.495,0-0.771c0-0.289,0.006-0.559,0.02-0.81c0.014-0.163,0.018-0.32,0.018-0.47    c0-0.163,0-0.314,0-0.452v-0.15c0-0.188-0.002-0.424-0.008-0.707C7.734,6.937,7.695,6.645,7.617,6.345    C7.545,6.043,7.428,5.749,7.271,5.46S6.893,4.914,6.604,4.688C6.314,4.462,5.947,4.283,5.502,4.152    C5.057,4.02,4.516,3.974,3.875,4.011c-0.439,0.025-0.852,0.09-1.242,0.198c-0.389,0.106-0.74,0.25-1.053,0.433    s-0.576,0.395-0.791,0.64C0.576,5.525,0.436,5.799,0.375,6.099c0.014,0.176,0.031,0.276,0.057,0.302    C0.496,6.538,0.57,6.689,0.656,6.853c0.09,0.162,0.209,0.244,0.359,0.244h0.018c0.076,0.013,0.184,0.017,0.32,0.01    s0.252-0.035,0.338-0.084c0.051-0.025,0.102-0.06,0.152-0.104c0.049-0.043,0.1-0.084,0.15-0.122    C2.143,6.67,2.348,6.531,2.604,6.382c0.258-0.151,0.67-0.245,1.236-0.283c0.35-0.013,0.635,0.019,0.855,0.093    c0.217,0.076,0.389,0.179,0.508,0.311C5.322,6.635,5.4,6.783,5.445,6.946c0.043,0.163,0.066,0.32,0.066,0.47    C5.338,7.352,5.127,7.3,4.883,7.257C4.637,7.213,4.334,7.179,3.969,7.153z M5.492,9.619C5.518,9.682,5.537,9.76,5.551,9.854    c0.012,0.094,0.018,0.198,0.018,0.31c0,0.201-0.023,0.417-0.076,0.65c-0.049,0.232-0.154,0.455-0.318,0.668    c-0.215,0.163-0.455,0.3-0.725,0.413c-0.271,0.114-0.58,0.17-0.932,0.17c-0.453,0-0.805-0.122-1.063-0.367    c-0.256-0.243-0.387-0.573-0.387-0.988c0-0.427,0.193-0.8,0.584-1.119c0.389-0.319,0.896-0.479,1.523-0.479    c0.264,0,0.506,0.05,0.725,0.149C5.121,9.361,5.318,9.481,5.492,9.619z"/>
                <path fill="#E03624" d="M8.883,9.44c0.074,0.051,0.146,0.084,0.215,0.106C9.152,9.614,9.225,9.66,9.314,9.683    C9.4,9.705,9.49,9.711,9.582,9.698s0.186-0.042,0.277-0.089c0.09-0.046,0.162-0.105,0.219-0.178    c0.133,0.278,0.324,0.506,0.563,0.685c0.24,0.178,0.541,0.348,0.902,0.51c0.465,0.207,0.932,0.309,1.412,0.307    c0.479-0.002,0.936-0.093,1.369-0.273c0.434-0.181,0.83-0.446,1.189-0.796c0.357-0.349,0.641-0.764,0.857-1.244l0.158-0.353    c0.219-0.487,0.334-0.969,0.346-1.442c0.01-0.474-0.064-0.914-0.223-1.321c-0.158-0.408-0.396-0.768-0.713-1.079    c-0.318-0.31-0.691-0.541-1.125-0.691c-0.301-0.103-0.6-0.152-0.893-0.149c-0.295,0.005-0.547,0.025-0.748,0.066    c0.039-0.113,0.084-0.224,0.133-0.333c0.049-0.108,0.098-0.221,0.152-0.339l0.414-0.922c0.072-0.163,0.16-0.343,0.266-0.54    c0.105-0.198,0.193-0.356,0.27-0.474C14.451,0.975,14.5,0.9,14.561,0.818c0.014-0.081-0.004-0.17-0.053-0.268    s-0.102-0.17-0.156-0.217c-0.082-0.08-0.195-0.153-0.342-0.218c-0.145-0.063-0.301-0.103-0.469-0.113    c-0.17-0.01-0.338,0.021-0.51,0.098c-0.17,0.075-0.313,0.217-0.426,0.426c-0.07,0.11-0.184,0.311-0.328,0.603    c-0.148,0.292-0.314,0.634-0.5,1.022c-0.186,0.391-0.383,0.811-0.588,1.26c-0.209,0.451-0.41,0.892-0.604,1.326    c-0.082,0.182-0.184,0.398-0.309,0.652c-0.125,0.254-0.26,0.517-0.402,0.79C9.713,6.488,9.557,6.794,9.404,7.1    C9.25,7.406,9.121,7.676,9.016,7.912C8.967,8.021,8.928,8.114,8.896,8.193C8.867,8.272,8.84,8.35,8.816,8.426    c-0.1,0.194-0.15,0.358-0.162,0.489C8.645,9.047,8.662,9.155,8.705,9.24C8.748,9.323,8.807,9.391,8.883,9.44z M11.781,6.611    l0.037-0.083c0.094-0.207,0.195-0.396,0.301-0.564c0.109-0.168,0.227-0.333,0.354-0.495c0.305-0.145,0.602-0.243,0.889-0.293    s0.564-0.017,0.826,0.101c0.291,0.13,0.521,0.333,0.699,0.607c0.176,0.274,0.209,0.614,0.102,1.024    c0.014,0.039,0.016,0.1,0.01,0.182c-0.01,0.083-0.031,0.175-0.061,0.275c-0.027,0.103-0.066,0.207-0.115,0.314    c-0.051,0.109-0.094,0.209-0.133,0.299c-0.26,0.526-0.609,0.892-1.059,1.099c-0.445,0.207-0.898,0.209-1.359,0.002    c-0.236-0.107-0.418-0.266-0.541-0.481c-0.129-0.213-0.246-0.432-0.352-0.654l-0.008-0.019C11.436,7.51,11.574,7.072,11.781,6.611    z"/>
                <path fill="#E03624" d="M15.082,14.099c-0.414,0.113-0.807,0.297-1.178,0.554s-0.691,0.578-0.961,0.965    c-0.27,0.386-0.457,0.786-0.563,1.199c-0.107,0.413-0.135,0.818-0.082,1.214c0.057,0.397,0.193,0.771,0.41,1.122    c0.217,0.351,0.52,0.651,0.91,0.901c0.242,0.156,0.508,0.272,0.797,0.349c0.289,0.075,0.568,0.109,0.84,0.101    c0.271-0.009,0.514-0.065,0.727-0.168c0.215-0.104,0.367-0.258,0.459-0.462c0.055-0.112,0.072-0.237,0.053-0.373    c-0.02-0.138-0.09-0.251-0.203-0.342c-0.063-0.048-0.125-0.077-0.189-0.089c-0.063-0.01-0.158-0.01-0.289-0.001    c-0.221,0.015-0.453,0.008-0.693-0.02c-0.244-0.03-0.443-0.095-0.598-0.192c-0.195-0.144-0.346-0.311-0.453-0.503    c-0.104-0.192-0.162-0.398-0.176-0.62c-0.018-0.222,0.016-0.45,0.096-0.687c0.078-0.236,0.207-0.467,0.385-0.694    c0.148-0.191,0.326-0.365,0.531-0.521c0.203-0.155,0.412-0.271,0.619-0.351c0.211-0.078,0.416-0.117,0.615-0.117    c0.199,0,0.373,0.059,0.523,0.177c0.139,0.107,0.229,0.244,0.27,0.409c0.045,0.166,0.066,0.344,0.07,0.535    c-0.055,0.113-0.049,0.227,0.014,0.342c0.064,0.117,0.139,0.207,0.223,0.271c0.025,0.022,0.088,0.042,0.182,0.061    c0.096,0.019,0.201,0.027,0.32,0.025c0.117-0.001,0.234-0.018,0.346-0.051c0.115-0.032,0.209-0.09,0.285-0.175    c0.135-0.139,0.209-0.321,0.227-0.543c0.021-0.222-0.014-0.455-0.098-0.7c-0.09-0.244-0.217-0.48-0.396-0.713    c-0.178-0.232-0.395-0.433-0.65-0.599c-0.344-0.225-0.723-0.36-1.135-0.405C15.91,13.952,15.496,13.986,15.082,14.099z"/>
            </g>
        </g>
    </svg>

</svg>
